<svg id="Layer_3" data-name="Layer 3" xmlns="http://www.w3.org/2000/svg" xmlns:xlink="http://www.w3.org/1999/xlink" viewBox="0 0 566.93 566.93"><defs><style>.cls-1{fill:none;}.cls-2{fill:#1d212d;}.cls-3{fill:url(#New_Pattern_3);}</style><pattern id="New_Pattern_3" data-name="New Pattern 3" width="283.46" height="283.46" patternUnits="userSpaceOnUse" viewBox="0 0 283.46 283.46"><rect class="cls-1" width="283.46" height="283.46"/><path class="cls-2" d="M85.19,299.23l-4-18.48A1.8,1.8,0,0,0,79,279.38l-2.68.58A1.81,1.81,0,0,0,75,282.11l4,18.48A1.79,1.79,0,0,0,81.13,302l2.69-.58A1.8,1.8,0,0,0,85.19,299.23Zm-7.65-17,1.33-.29,3.73,17.11-1.32.29Z"/><path class="cls-2" d="M88.2,296.2l-3-13.51a1.81,1.81,0,0,0-2.15-1.38l-1.93.42a1.81,1.81,0,0,0-1.38,2.15l3,13.52a1.82,1.82,0,0,0,2.16,1.38l1.93-.42A1.82,1.82,0,0,0,88.2,296.2ZM82.37,284l.58-.13,2.66,12.16-.58.13Z"/><path class="cls-2" d="M278.13,105.26c2.55-6.58,1.58-12.89-2.21-14.36a5.24,5.24,0,0,0-4.35.38c-2.77,1.37-5.37,4.64-7,8.75s-1.87,8.27-.75,11.15a5.31,5.31,0,0,0,3,3.22C270.61,115.86,275.58,111.85,278.13,105.26Zm-2.33-.9c-2.15,5.55-6,8.52-8.08,7.7a2.84,2.84,0,0,1-1.53-1.78c-.89-2.28-.6-5.86.75-9.35s3.55-6.33,5.74-7.42a2.87,2.87,0,0,1,2.34-.28C277.11,94,278,98.81,275.8,104.36Z"/><path class="cls-2" d="M267.72,112.06a2.84,2.84,0,0,1-1.53-1.78h0c-.89-2.28-.6-5.86.75-9.35s3.55-6.33,5.74-7.42a2.87,2.87,0,0,1,2.34-.28l.9-2.33-5.59-2.17c-3.79-1.47-8.76,2.54-11.31,9.13s-1.59,12.9,2.2,14.37l5.6,2.17Zm3.19-20.42c-2.51,1.53-4.84,4.61-6.3,8.39s-1.82,7.61-1,10.44l-1.49-.57c-2.1-.81-2.93-5.59-.78-11.14s6-8.51,8.07-7.7Z"/><path class="cls-2" d="M289.51,111l-18.59-7.2a1.25,1.25,0,1,1,.9-2.33l18.6,7.2a1.25,1.25,0,1,1-.91,2.33Z"/><path class="cls-2" d="M24.45,116.8c2.55-6.59,1.58-12.9-2.21-14.37a5.31,5.31,0,0,0-4.35.38c-2.77,1.38-5.37,4.65-7,8.75s-1.87,8.28-.76,11.15a5.3,5.3,0,0,0,3,3.22C16.93,127.4,21.9,123.39,24.45,116.8Zm-2.33-.9c-2.15,5.55-6,8.51-8.08,7.7a2.86,2.86,0,0,1-1.53-1.79c-.89-2.28-.6-5.86.75-9.34s3.55-6.33,5.74-7.42a2.88,2.88,0,0,1,2.34-.29C23.43,105.58,24.27,110.35,22.12,115.9Z"/><path class="cls-2" d="M14,123.6a2.86,2.86,0,0,1-1.53-1.78h0c-.89-2.28-.6-5.86.75-9.34s3.55-6.33,5.74-7.42a2.88,2.88,0,0,1,2.34-.29l.9-2.33-5.59-2.16c-3.8-1.47-8.76,2.54-11.32,9.13s-1.58,12.9,2.21,14.37l5.6,2.16Zm3.19-20.43c-2.52,1.54-4.84,4.61-6.3,8.39s-1.82,7.62-1,10.45l-1.49-.58c-2.1-.81-2.94-5.58-.79-11.13s6-8.51,8.08-7.7Z"/><path class="cls-2" d="M-5.33,105.26c2.55-6.58,1.58-12.89-2.21-14.36a5.26,5.26,0,0,0-4.36.38c-2.76,1.37-5.36,4.64-7,8.75s-1.88,8.27-.76,11.15a5.34,5.34,0,0,0,3,3.22C-12.85,115.86-7.89,111.85-5.33,105.26Zm-2.33-.9c-2.15,5.55-6,8.52-8.08,7.7a2.85,2.85,0,0,1-1.54-1.78c-.88-2.28-.59-5.86.76-9.35s3.55-6.33,5.74-7.42a2.85,2.85,0,0,1,2.33-.28C-6.35,94-5.51,98.81-7.66,104.36Z"/><path class="cls-2" d="M-15.74,112.06a2.85,2.85,0,0,1-1.54-1.78h0c-.88-2.28-.59-5.86.76-9.35s3.55-6.33,5.74-7.42a2.85,2.85,0,0,1,2.33-.28l.91-2.33-5.6-2.17c-3.79-1.47-8.76,2.54-11.31,9.13s-1.58,12.9,2.21,14.37l5.59,2.17Zm3.19-20.42c-2.52,1.53-4.84,4.61-6.3,8.39s-1.82,7.61-1,10.44l-1.49-.57c-2.09-.81-2.93-5.59-.78-11.14s6-8.51,8.08-7.7Z"/><path class="cls-2" d="M6.05,111l-18.6-7.2a1.25,1.25,0,0,1-.71-1.62,1.25,1.25,0,0,1,1.62-.71L7,108.68a1.26,1.26,0,0,1,.71,1.62A1.24,1.24,0,0,1,6.05,111Z"/><path class="cls-2" d="M86.19,202a1.26,1.26,0,0,1-1-1.44l4.28-26.33a1.25,1.25,0,0,1,2.47.4l-4.28,26.33A1.26,1.26,0,0,1,86.19,202Z"/><path class="cls-2" d="M110.81,206l-27.72-4.5a1.25,1.25,0,0,1,.4-2.47l27.72,4.51a1.25,1.25,0,1,1-.4,2.46Z"/><path class="cls-2" d="M97,203.71a1.25,1.25,0,0,1-1-1.43l1.65-10.17a1.25,1.25,0,0,1,2.47.4l-1.65,10.17A1.26,1.26,0,0,1,97,203.71Z"/><path class="cls-2" d="M105,194.58l-12.41-2a1.25,1.25,0,1,1,.4-2.47l12.41,2a1.25,1.25,0,1,1-.4,2.46Z"/><path class="cls-2" d="M83,177.21l-2.41-.4a1.25,1.25,0,0,1,.4-2.46l2.41.39a1.25,1.25,0,1,1-.4,2.47Z"/><path class="cls-2" d="M114.6,182.33l-27.73-4.5a1.25,1.25,0,0,1,.4-2.47L115,179.87a1.25,1.25,0,0,1-.4,2.46Z"/><path class="cls-2" d="M87.73,180.31l1.15-7a3.24,3.24,0,0,0-.56-2.38,3.2,3.2,0,0,0-5.76,1.36l-1.14,7a3.2,3.2,0,1,0,6.31,1Zm-1.44-7.95a.71.71,0,0,1,.12.52l-1.14,7a.7.7,0,0,1-.81.58.69.69,0,0,1-.57-.8l1.14-7a.69.69,0,0,1,.8-.58A.71.71,0,0,1,86.29,172.36Z"/><path class="cls-2" d="M88.33,188.8l-3.15-.51a1.25,1.25,0,1,1,.4-2.47l3.15.51a1.25,1.25,0,1,1-.4,2.47Z"/><path class="cls-2" d="M108.11,205.53a1.26,1.26,0,0,1-1-1.44l4.27-26.33a1.25,1.25,0,0,1,2.47.4l-4.28,26.33A1.25,1.25,0,0,1,108.11,205.53Z"/><path class="cls-2" d="M121.36,183.43,119,183a1.25,1.25,0,0,1-1-1.43,1.26,1.26,0,0,1,1.44-1l2.41.4a1.25,1.25,0,1,1-.41,2.46Z"/><path class="cls-2" d="M119.82,185.52l1.14-7a3.19,3.19,0,0,0-5-3.11,3.16,3.16,0,0,0-1.29,2.08l-1.14,7a3.2,3.2,0,1,0,6.32,1Zm-1.33-7.43-1.14,7a.7.7,0,0,1-1.38-.22l1.14-7a.71.71,0,0,1,.28-.46.73.73,0,0,1,.53-.12A.69.69,0,0,1,118.49,178.09Z"/><path class="cls-2" d="M113.41,192.87l-3.16-.51a1.25,1.25,0,0,1,.4-2.47l3.16.51a1.26,1.26,0,0,1,1,1.44A1.25,1.25,0,0,1,113.41,192.87Z"/><path class="cls-2" d="M225.54,246.19a14.78,14.78,0,0,0,6-21.85l3.25-5a5.63,5.63,0,0,0-3.52-8.55L217,207.63a5.63,5.63,0,0,0-6.76,6.29l.95,6.56a14.79,14.79,0,0,0-3,21.79,3.77,3.77,0,0,0,2.05,1.22l13,2.92.12,0A3.77,3.77,0,0,0,225.54,246.19Zm-9.1-36.12,14.32,3.14a3.12,3.12,0,0,1,2,4.75L229,223.7a1.26,1.26,0,0,0,.07,1.46,12.28,12.28,0,0,1-4.57,18.75,1.3,1.3,0,0,1-.79.06l-13-2.92a1.34,1.34,0,0,1-.69-.39,12.28,12.28,0,0,1,3.11-18.48,1.26,1.26,0,0,0,.6-1.25l-1.06-7.37a3.12,3.12,0,0,1,3.68-3.5Zm-.08,10.78a12.29,12.29,0,0,1,10.29,2,1.29,1.29,0,0,0,1,.22,1.27,1.27,0,0,0,.82-.55l1.92-3a4,4,0,0,0-2.47-6L219,211.55a4,4,0,0,0-3.54,1,3.92,3.92,0,0,0-1.22,3.45l.55,3.84a1.27,1.27,0,0,0,.55.87,1.25,1.25,0,0,0,.45.18A1.18,1.18,0,0,0,216.36,220.85Zm2.12-6.85,8.87,1.94a1.48,1.48,0,0,1,1.05.88,1.45,1.45,0,0,1-.13,1.34L227,220.07a14.9,14.9,0,0,0-9.95-1.93l-.36-2.51a1.44,1.44,0,0,1,.45-1.27,1.43,1.43,0,0,1,1.27-.37Z"/><path class="cls-2" d="M216.36,220.85a12.29,12.29,0,0,1,10.29,2l1.07.78,2.65-4.09a4,4,0,0,0-2.48-6L219,211.55a4,4,0,0,0-3.54,1,3.92,3.92,0,0,0-1.22,3.45l.75,5.23Zm2.12-6.85,8.87,1.94a1.48,1.48,0,0,1,1.05.88,1.45,1.45,0,0,1-.13,1.34L227,220.07a14.9,14.9,0,0,0-9.95-1.93l-.36-2.51a1.44,1.44,0,0,1,.45-1.27,1.43,1.43,0,0,1,1.27-.37Z"/><path class="cls-2" d="M216.36,220.85a12.29,12.29,0,0,1,10.29,2l1.07.78,2.65-4.09a4,4,0,0,0-2.48-6L219,211.55a4,4,0,0,0-3.54,1,3.92,3.92,0,0,0-1.22,3.45l.75,5.23Zm2.12-6.85,8.87,1.94a1.48,1.48,0,0,1,1.05.88,1.45,1.45,0,0,1-.13,1.34L227,220.07a14.9,14.9,0,0,0-9.95-1.93l-.36-2.51a1.44,1.44,0,0,1,.45-1.27,1.43,1.43,0,0,1,1.27-.37Z"/><path class="cls-2" d="M228.16,232.66a8.57,8.57,0,1,0-10,6.77A8.57,8.57,0,0,0,228.16,232.66Zm-2.45-.48a6.07,6.07,0,1,1-4.8-7.12A6.08,6.08,0,0,1,225.71,232.18Z"/><path class="cls-2" d="M65.05,19.94,61,1.46A1.81,1.81,0,0,0,58.87.08L56.19.67a1.8,1.8,0,0,0-1.38,2.14l4,18.48A1.8,1.8,0,0,0,61,22.67l2.69-.59A1.79,1.79,0,0,0,65.05,19.94ZM57.4,3l1.32-.29,3.74,17.12-1.32.29Z"/><path class="cls-2" d="M60.32,18.6l-3-13.52a1.81,1.81,0,0,0-2.16-1.37l-1.92.42a1.79,1.79,0,0,0-1.38,2.15l3,13.51A1.81,1.81,0,0,0,57,21.17l1.93-.42A1.81,1.81,0,0,0,60.32,18.6ZM54.5,6.42l.57-.12,2.66,12.16-.58.12Z"/><path class="cls-2" d="M54.35,16.5l-1.09.23a1.79,1.79,0,0,1-2.14-1.37l-.86-3.93a1.82,1.82,0,0,1,1.38-2.15l1.09-.23a1.79,1.79,0,0,1,2.14,1.37l.86,3.93A1.82,1.82,0,0,1,54.35,16.5Z"/><path class="cls-2" d="M78.69,4,59.92,8.13l1.35,6.2L80,10.24Zm-15.8,6L76.78,7l.29,1.33-13.89,3Z"/><path class="cls-2" d="M85.19,15.77l-4-18.48A1.81,1.81,0,0,0,79-4.09l-2.68.59A1.8,1.8,0,0,0,75-1.36l4,18.49a1.8,1.8,0,0,0,2.14,1.37l2.69-.59A1.79,1.79,0,0,0,85.19,15.77Zm-7.65-17,1.33-.29L82.6,15.62l-1.32.29Z"/><path class="cls-2" d="M88.2,12.74l-3-13.51a1.79,1.79,0,0,0-2.15-1.38l-1.93.42A1.81,1.81,0,0,0,79.78.42l3,13.51a1.82,1.82,0,0,0,2.16,1.38l1.93-.42A1.81,1.81,0,0,0,88.2,12.74ZM82.37.56,83,.44,85.61,12.6l-.58.12Z"/><path class="cls-2" d="M88.37,9.3l-1.09.23a1.79,1.79,0,0,1-2.14-1.37l-.86-3.93a1.81,1.81,0,0,1,1.37-2.15l1.09-.23a1.8,1.8,0,0,1,2.14,1.37l.86,3.93A1.81,1.81,0,0,1,88.37,9.3Z"/><path class="cls-2" d="M182.25,94.75a4.88,4.88,0,0,1,2.35-1.45l.8-.24c2.18-.61,2.43-.79,4.36-3.15s-.66-7.69-4.47-15a36.49,36.49,0,0,1-2.51-5.33c-.09-2.72-2.82-6.75-4.91-8l-.12-.06a4.6,4.6,0,0,0-5,.71c-2.2,1.74-3.67,5.25-3.33,6.91l0,.19.1.17c.74,1.3,2.42,2.18,4,3A10.88,10.88,0,0,1,176,73.9c0,.1.38,1,.93,6.34a9.74,9.74,0,0,0-8.41.73,9.68,9.68,0,0,0-3.64-.12,9.63,9.63,0,0,0-8,11.13,9.74,9.74,0,0,0,10.51,7.93,9.25,9.25,0,0,0,3.46-1.07,1.52,1.52,0,0,1,1-.14,9.61,9.61,0,0,0,3.12,0C177.24,98.35,180.7,96.73,182.25,94.75Zm-12.57,1.89a6.93,6.93,0,0,1-2.56.78,7.21,7.21,0,0,1-7.78-5.86,7.12,7.12,0,0,1,5.89-8.24,6.91,6.91,0,0,1,3.1.2l.58.16.49-.33a7.11,7.11,0,0,1,8.22.12l2.23,1.62-.25-2.75c-.8-8.61-1.28-9.36-1.51-9.73a8.72,8.72,0,0,0-3.33-2.36,11.35,11.35,0,0,1-2.9-1.84,7.4,7.4,0,0,1,2.51-4.32,2.06,2.06,0,0,1,2.26-.39c1.45.93,3.59,4.16,3.65,5.92,0,1,.92,2.82,2.79,6.41,1.57,3,5.74,11,4.76,12.29h0c-1.56,1.9-1.56,1.9-3.11,2.34l-.83.24a7.38,7.38,0,0,0-3.61,2.3,11.17,11.17,0,0,1-5.74,3,7.1,7.1,0,0,1-2.3,0,4,4,0,0,0-1.34,0A3.82,3.82,0,0,0,169.68,96.64Z"/></pattern></defs><rect class="cls-3" width="566.93" height="566.93"/></svg>