<svg xmlns="http://www.w3.org/2000/svg" viewBox="0 0 88.14 101.69"><defs><style>.cls-1{fill:#fff;}</style></defs><g id="Layer_2" data-name="Layer 2"><g id="Layer_2-2" data-name="Layer 2"><path class="cls-1" d="M20,34.46c-1.37-.92.23-2.18.23-2.18l1.37-4.94c-2.17.46-7.66,7.81-7.66,7.81l7.78,6.66Z"/><path class="cls-1" d="M4.06,26.3c-.3-2.22-.82-6-1.13-8.15A84.84,84.84,0,0,1,2.47,9s6.86,7.58,8.92,10.34c0,0,.12.22.3.6a41.45,41.45,0,0,1,2.9,8l11.56-8.84.23-5.29s-5.87-2.92-10.18-5c-.95-.45-1.82-.86-2.54-1.18a18.08,18.08,0,0,0-1.81-.75l-.14,0-.31-.12c-1.16-.44-4.52-2-9.27-6.5,0,0-3.67,9.88-1.38,18.15l.19,1.06c0,.14.05.28.07.44.15.86.35,2,.55,3.28.27,1.7.55,3.6.76,5.25.12,1,.22,1.9.26,2.6C2.58,31,4,36,6.24,36.3c0,0-2.06-4.94-1.94-8.27C4.3,28,4.21,27.34,4.06,26.3Z"/><path class="cls-1" d="M10,41.23s-.57-4.13.68-5.16c0,0,1.38-3.22-.11-4.94l.11-9.88-2,9.42a13.27,13.27,0,0,1-1.26,4.25s-.69,4.25-.12,5.63A9.26,9.26,0,0,0,10,41.23Z"/><path class="cls-1" d="M10.51,39.74s.23,7.28-.61,9.65c0,0,1.45-.69,1.76-1.38,0,0,.15,6.51-.84,8.35a2.11,2.11,0,0,0,.38,2.3s.08,2.83-2.59,7.19c0,0,3.89-2.22,4.57-3.52,0,0,.69-3.9-.38-5.13,0,0-1.07-1.68.08-2.83C12.88,54.37,18.45,46.79,10.51,39.74Z"/><path class="cls-1" d="M35.22,59.11s-12.73-11.79-14-12.17A2.2,2.2,0,0,0,21.34,50s5.11,6.74,5.42,8.43A75.89,75.89,0,0,0,35.68,66s.69-3-.38-4.06C35.3,62,34.77,59.27,35.22,59.11Z"/><path class="cls-1" d="M18.45,64.78s-.39-1.91-1.15-2.3c0,0-.38-9.95-1.68-10.72,0,0-.76,9.42-.3,11.41,0,0-6.71,6.74-6.71,8.2,0,0,5.18-2.76,6.56-4.06a73.56,73.56,0,0,0-5.73,5.56,1,1,0,0,0-.22.41,5.63,5.63,0,0,0,.62.09,14,14,0,0,0,7.92-1.85s6.1-1.46,1,2.91c0,0-3.74,2.6-2.29,3.75,0,0,6.64-2.14,7.17-3.06A3.68,3.68,0,0,0,22.87,72S23.71,67.23,18.45,64.78Z"/><path class="cls-1" d="M33.62,89.44s-.48-2.48-1-5.75a82.88,82.88,0,0,1-.87-9.11s.31-1.07-2.29-3.44c0,0-10.22-13.33-10.6-15l-.07,4.21s6.25,10.8,7,14.17c0,0,.69,6.27,2.75,9,0,0,.52,1.45,1.14,3.28.35,1,.73,2.19,1.07,3.28s.55,1.85.72,2.55c0,.12.05.22.07.32a6.37,6.37,0,0,1,.13.76s-.25,1.53,1.69,3.59a13.2,13.2,0,0,0,2,1.66,25.81,25.81,0,0,0,5.18,2.71A25.58,25.58,0,0,1,38.38,99,33,33,0,0,1,33.62,89.44Z"/><path class="cls-1" d="M25.92,63.1A17.25,17.25,0,0,0,29.05,67s6.33,12.33,6.56,13.78l.3-10.56S26.61,61.72,25,59.57c0,0-2.44-5.28-3.05-7.42,0,0-1.29-2.53-1.52-.77a56.68,56.68,0,0,1,2,7.35S25.69,62.1,25.92,63.1Z"/><path class="cls-1" d="M68.17,34.23l-1.72,7.35,7.78-6.66s-5.49-7.35-7.67-7.81l1.38,4.94S69.54,33.31,68.17,34.23Z"/><path class="cls-1" d="M86,0C81,4.78,77.49,6.24,76.55,6.57l-.26.09-.06,0a21.75,21.75,0,0,0-2.12.89c-.6.28-1.3.6-2,1-4.32,2-10.31,5-10.31,5L62,18.84l11.55,8.84a42.38,42.38,0,0,1,3.2-8.61c.4-.54,1-1.26,1.66-2.06,2.79-3.33,7.2-8.2,7.26-8.28h0c0,.3,0,.61,0,.93,0,3.6-.47,8.26-.47,8.26-.26,1.76-.67,4.71-1,6.92-.23,1.69-.4,3-.4,3,.11,3.33-2,8.27-2,8.27,2.29-.35,3.66-5.29,3.66-5.29.06-.94.21-2.24.4-3.64,0-.12,0-.24,0-.37.16-1.16.35-2.37.53-3.51.2-1.31.41-2.52.56-3.43,0-.16,0-.31.08-.44l.21-1.24C89.67,9.88,86,0,86,0Z"/><path class="cls-1" d="M79.49,30.44,77.43,21l.12,9.88c-1.49,1.72-.12,4.94-.12,4.94,1.26,1,.69,5.16.69,5.16a9.27,9.27,0,0,0,2.74-.68c.58-1.38-.11-5.63-.11-5.63A13.2,13.2,0,0,1,79.49,30.44Z"/><path class="cls-1" d="M76.94,58.43a2.11,2.11,0,0,0,.38-2.3c-1-1.84-.84-8.35-.84-8.35.3.69,1.75,1.38,1.75,1.38-.84-2.37-.61-9.65-.61-9.65-7.93,7.05-2.36,14.63-2.36,14.63,1.14,1.15.07,2.83.07,2.83C74.27,58.2,75,62.1,75,62.1c.69,1.3,4.58,3.52,4.58,3.52C76.86,61.26,76.94,58.43,76.94,58.43Z"/><path class="cls-1" d="M52.84,61.72c-1.07,1.07-.39,4.06-.39,4.06a75.42,75.42,0,0,0,8.93-7.58c.3-1.69,5.41-8.43,5.41-8.43a2.2,2.2,0,0,0,.15-3.06c-1.29.38-14,12.17-14,12.17C53.37,59,52.84,61.72,52.84,61.72Z"/><path class="cls-1" d="M72.82,62.94c.45-2-.31-11.41-.31-11.41-1.29.77-1.68,10.72-1.68,10.72-.76.39-1.14,2.3-1.14,2.3-5.26,2.45-4.42,7.2-4.42,7.2a3.7,3.7,0,0,0-.77,3.14C65,75.81,71.67,78,71.67,78c1.45-1.15-2.28-3.75-2.28-3.75-5.11-4.37,1-2.91,1-2.91a13.23,13.23,0,0,0,8.54,1.76c0-.69-6-6-6-6,1.37,1.3,6.56,4.06,6.56,4.06C79.53,69.68,72.82,62.94,72.82,62.94Z"/><path class="cls-1" d="M69.23,55.9c-.38,1.68-10.6,15-10.6,15-2.59,2.37-2.29,3.44-2.29,3.44a82.63,82.63,0,0,1-.94,9.59c-.45,3-.89,5.27-.89,5.27A33.22,33.22,0,0,1,49.6,99a24.91,24.91,0,0,1-2,2.48A26.56,26.56,0,0,0,52.42,99a10.2,10.2,0,0,0,3.44-3.42,3.52,3.52,0,0,0,.56-2.06A4.33,4.33,0,0,1,56.5,93l.06-.32c.15-.68.41-1.57.7-2.55s.64-2,1-3c.7-2.07,1.33-3.82,1.33-3.82,2.06-2.75,2.74-9,2.74-9,.77-3.37,7-14.17,7-14.17Z"/><path class="cls-1" d="M66.18,51.92c-.61,2.14-3.05,7.42-3.05,7.42C61.53,61.49,52.23,70,52.23,70l.3,10.57c.23-1.46,6.56-13.79,6.56-13.79a17.56,17.56,0,0,0,3.13-3.9c.23-1,3.5-4.37,3.5-4.37a56.06,56.06,0,0,1,2-7.35C67.48,49.39,66.18,51.92,66.18,51.92Z"/><path class="cls-1" d="M43.37,92.93a1.16,1.16,0,0,1-.62-.68,67.87,67.87,0,0,1-.82-8.46c-.41-6.61-.73-14.57-.73-14.57-.3-2.28-3.43-6.67-3.43-6.67-1.2-.31-.41,1.21-.41,1.21.73.11.88,3,.88,3-.91,3.42.6,12.83,1.36,17,.23,1.28.39,2.08.39,2.08,1,2.35,1.27,7.48,1.27,7.48-2.35-.27-3.21,3.34-3.21,3.34L41,99l2.89,2.25L43.78,99Z"/><path class="cls-1" d="M46.63,93.33s.27-5.13,1.26-7.48c0,0,.16-.76.38-2,.75-4.15,2.29-13.67,1.37-17.11,0,0,.15-2.87.89-3,0,0,.79-1.52-.42-1.21,0,0-3.12,4.39-3.43,6.67,0,0-.31,8-.73,14.61a67.36,67.36,0,0,1-.82,8.42,1.16,1.16,0,0,1-.62.68l-.4,6L44,101.24,46.86,99l3-2.31S49,93.06,46.63,93.33Z"/><path class="cls-1" d="M44.2,12.19a46.5,46.5,0,0,1,11.69,4.46l.07-3.9a81.09,81.09,0,0,0-11.8-4.42s-2.64.59-11.84,4.38l.08,3.91S43.56,11.69,44.2,12.19Z"/><path class="cls-1" d="M44.07,53.34A18.23,18.23,0,1,0,25.91,35.11,18.19,18.19,0,0,0,44.07,53.34Zm0-33a14.33,14.33,0,0,1,0,28.65V41.79h6.24c5.94,0,6.67-5,6.67-5a24.57,24.57,0,0,0,0-4.41c.05-4.84-6.24-5.72-6.24-5.72H32.22A14.23,14.23,0,0,1,44.07,20.32Zm4.87,10.6c4,0,3.41,3.28,3.41,3.28,0,3.67-3.16,3.62-3.16,3.62l-10.14,0V48.05a14.29,14.29,0,0,1-8.71-17.26Z"/></g></g></svg>