<svg xmlns="http://www.w3.org/2000/svg" viewBox="0 0 121.91 133.42"><defs><style>.cls-1{fill:none;}.cls-2{fill:#fffffe;}.cls-3{fill:#fff;}.cls-4{fill:#3a3c66;}</style></defs><g id="Layer_2" data-name="Layer 2"><g id="Layer_2-2" data-name="Layer 2"><path class="cls-1" d="M104.12,106.57a.65.65,0,0,0-.23-.15.4.4,0,0,0-.26,0,.77.77,0,0,0-.19.11l-.21.2L103,107l.77.78.21-.21a2.6,2.6,0,0,0,.24-.27.52.52,0,0,0,.1-.26.45.45,0,0,0,0-.23A.6.6,0,0,0,104.12,106.57Z"/><path class="cls-1" d="M91.16,116.75a.45.45,0,0,0,0-.23.6.6,0,0,0-.09-.27.42.42,0,0,0-.17-.2.38.38,0,0,0-.26-.06.54.54,0,0,0-.21.05,2.08,2.08,0,0,0-.26.13l-.3.16.51,1,.26-.14A1.68,1.68,0,0,0,91,117,.46.46,0,0,0,91.16,116.75Z"/><path class="cls-1" d="M30.69,75.5a9,9,0,0,1-.54.86,2.13,2.13,0,0,0-.2,2.51c.05-.16.09-.26.09-.26A9.48,9.48,0,0,0,30.69,75.5Z"/><path class="cls-1" d="M46.4,106.51c-.42-1.2-.73-2-.73-2-2-2.65-2.71-8.7-2.71-8.7a23.61,23.61,0,0,0-1.73-4.17,5.41,5.41,0,0,1,0,1.54,3.42,3.42,0,0,1,.7,2.92c-.49.85-6.66,2.85-6.66,2.85a.81.81,0,0,1-.09-.1l-1.3.43A40.87,40.87,0,0,0,46.4,106.51Z"/><path class="cls-1" d="M32,76.76c-1.07,1.07-.07,2.64-.07,2.64a3.42,3.42,0,0,1,.54,2c0-2.07.21-4.5.32-6A9,9,0,0,1,32,76.76Z"/><path class="cls-1" d="M35.37,17.25a1.62,1.62,0,0,0-.42-.5.9.9,0,0,0-.58-.16,1.54,1.54,0,0,0-.46.11c-.16.07-.35.17-.57.29l-.65.36L34,19.71l.55-.31a4.43,4.43,0,0,0,.66-.44,1.1,1.1,0,0,0,.34-.51,1.28,1.28,0,0,0,.06-.55A2.07,2.07,0,0,0,35.37,17.25Z"/><polygon class="cls-1" points="65.09 123.91 64.8 125.28 65.63 125.21 65.09 123.91"/><path class="cls-1" d="M32.71,119.57a.93.93,0,0,0,.47.07,1,1,0,0,0,.54-.22,1.63,1.63,0,0,0,.42-.55,1.56,1.56,0,0,0,.19-.68,1,1,0,0,0-.51-.9l-.48-.26h0l-1.15,2.29h0Z"/><path class="cls-1" d="M90,76.55a9,9,0,0,1-.79-1.41c.11,1.53.27,4,.32,6a3.46,3.46,0,0,1,.54-2S91,77.62,90,76.55Z"/><path class="cls-1" d="M102.32,50.14c-.08.57-.15,1.12-.21,1.64a46,46,0,0,1,2.79,15.93c0,20.65-12.83,36.58-30.54,42-.13.38-.26.77-.37,1.14s-.27.87-.38,1.27a46.31,46.31,0,0,0,29-64.16c-.1.62-.19,1.25-.28,1.86C102.35,49.9,102.34,50,102.32,50.14Z"/><path class="cls-1" d="M93.46,94.49a13.65,13.65,0,0,1-2.16-.25,13.69,13.69,0,0,1-5.88-1.74l-.25,0c-1.27,0-2.26.48.79,3,0,0,3.69,2.51,2.26,3.62l-1.51-.5a.81.81,0,0,1-.09.1s-6.17-2-6.66-2.85a3.42,3.42,0,0,1,.7-2.92,5.47,5.47,0,0,1,0-1.55A24,24,0,0,0,79,95.55s-.67,6-2.71,8.7c0,0-.4,1.11-.92,2.59A40.62,40.62,0,0,0,93.46,94.49Z"/><path class="cls-1" d="M31.86,31.76l1.57.72.2.09A43.71,43.71,0,0,1,60.72,23.4a44.5,44.5,0,0,1,27.21,9.11l.68-.31,1.27-.58a45.76,45.76,0,0,0-58,.14Z"/><path class="cls-1" d="M91.76,76.14a9,9,0,0,1-.54-.86,9.61,9.61,0,0,0,.65,3.12s0,.1.09.25A2.12,2.12,0,0,0,91.76,76.14Z"/><path class="cls-1" d="M19.87,32.62c-.05,1.44,0,3.19.12,4.74a29.81,29.81,0,0,1,.35-4.24Z"/><path class="cls-1" d="M94.48,93.21c.27-.35.54-.7.79-1.06l-2-1.09a2.93,2.93,0,0,1,.64,1.3L93.23,92C93.69,92.42,94.13,92.84,94.48,93.21Z"/><path class="cls-1" d="M101.45,42.17c-.07.31-.14.62-.22.92,0,0-.08.44-.2,1.15h0a1.62,1.62,0,0,0,.1.18C101.24,43.62,101.35,42.85,101.45,42.17Z"/><path class="cls-1" d="M102,32.39h0s-.18.19-.47.5a31.2,31.2,0,0,1,.35,4.23c.08-1.25.14-2.61.13-3.84C102.05,33,102.05,32.68,102,32.39Z"/><path class="cls-1" d="M101.31,55.32c-.6,1.41-1.64,3.21-3,3.41A27.62,27.62,0,0,0,100.19,52l-.24-.64v-.21c0,.11,0,.23,0,.34-.18,1.3-.32,2.51-.37,3.39A11.65,11.65,0,0,1,97.39,59a10.09,10.09,0,0,1-.09,3.82,15.07,15.07,0,0,1-2,.61c0,.1,0,.18-.08.26s-.52.2-1.1.38c0,2.25.08,5.77.63,7.27,0,0-1.43-.67-1.74-1.33,0,0-.15,6.27.83,8a2,2,0,0,1-.37,2.21S93.34,83,96,87.21a30.06,30.06,0,0,1-3.17-2,21.61,21.61,0,0,0,1.11,2.07S90.31,85.16,89.67,84c0,0-.12-.7-.18-1.58a12.31,12.31,0,0,1-.14,2.26s4.9,4.8,6.27,7A41.94,41.94,0,0,0,103,67.46,44,44,0,0,0,101.31,55.32Z"/><path class="cls-1" d="M101.06,44.85c0-.06-.07-.13-.1-.2-.15.85-.34,2-.53,3.19h0c.06.11.11.23.16.34l0-.26C100.76,47,100.91,45.91,101.06,44.85Z"/><path class="cls-1" d="M88.08,118.67a2.08,2.08,0,0,0-.32-.54,1.09,1.09,0,0,0-.36-.3.7.7,0,0,0-.36-.1,1,1,0,0,0-.35.07.84.84,0,0,0-.28.2.82.82,0,0,0-.17.35,1.14,1.14,0,0,0,0,.46,2.35,2.35,0,0,0,.19.61,2.19,2.19,0,0,0,.32.54,1.25,1.25,0,0,0,.36.3.86.86,0,0,0,.37.1,1,1,0,0,0,.34-.08.86.86,0,0,0,.29-.21.84.84,0,0,0,.17-.34,1.47,1.47,0,0,0,0-.47A2,2,0,0,0,88.08,118.67Z"/><path class="cls-1" d="M61.21,124.77a.47.47,0,0,0,.26-.11.49.49,0,0,0,.14-.18.56.56,0,0,0,0-.28.44.44,0,0,0,0-.26.36.36,0,0,0-.2-.18l-.21-.05-.29,0h-.34v1.1h.29A1.86,1.86,0,0,0,61.21,124.77Z"/><path class="cls-1" d="M65.71,61.38s3,0,3-3.36c0,0,.5-3-3.17-3.05l-17.3-.12a13.28,13.28,0,0,0,8.1,16V61.43Z"/><path class="cls-1" d="M33.38,98.79c-.18-1.23,2.57-3.1,2.57-3.1,3.08-2.57,2-3,.75-3l-.21,0a13.61,13.61,0,0,1-5.82,1.74,12.27,12.27,0,0,1-1.35.2A39.68,39.68,0,0,0,33.38,98.79Z"/><path class="cls-1" d="M26.73,91.23a74.5,74.5,0,0,1,5.83-6.38,12.44,12.44,0,0,1-.14-2.27c-.06.89-.18,1.59-.18,1.59C31.6,85.38,28,87.44,28,87.44a20.4,20.4,0,0,0,1.11-2.06,31.23,31.23,0,0,1-3.17,2.05c2.64-4.2,2.56-6.93,2.56-6.93a2,2,0,0,1-.37-2.22c1-1.77.83-8,.83-8-.31.66-1.74,1.33-1.74,1.33.55-1.5.64-5,.63-7.28-.58-.18-1.1-.38-1.1-.38s0-.16-.08-.25a15.07,15.07,0,0,1-2.05-.61,10.15,10.15,0,0,1-.09-3.83,11.65,11.65,0,0,1-2.14-4.17c0-.66-.12-1.5-.24-2.42-.19-1.53-.46-3.3-.71-4.88-.19-1.17-.37-2.25-.5-3,0-.14-.05-.28-.07-.41l-.18-1c-.08-.31-.16-.62-.22-.93.09.63.19,1.35.3,2.09l.09-.17c0,.13,0,.27.08.41l-.11.2c.16,1.09.32,2.21.45,3.19.06-.11.11-.23.16-.34.25,1.58.52,3.35.71,4.88-.09.24-.16.5-.25.75A30.65,30.65,0,0,0,23.6,59c-1.1-.16-2-1.36-2.59-2.55a44.68,44.68,0,0,0-1.36,11.06A42,42,0,0,0,26.73,91.23Z"/><path class="cls-1" d="M73.05,56.33a22.74,22.74,0,0,1,0,4.1s-.68,4.64-6.21,4.64H61v6.68A13.32,13.32,0,1,0,49.94,51H67.25S73.1,51.83,73.05,56.33Z"/><path class="cls-1" d="M83.9,119.65a.58.58,0,0,0-.18-.25.63.63,0,0,0-.25-.09,1.2,1.2,0,0,0-.28,0l-.34.12-.14.05.43,1.15.07,0,.25-.1.21-.09.14-.11a.41.41,0,0,0,.1-.14A.6.6,0,0,0,84,120,1.56,1.56,0,0,0,83.9,119.65Z"/><path class="cls-1" d="M28.71,92.18l-.72.39a3,3,0,0,1,.63-1.29L27.29,92c.22.3.43.6.66.89Z"/><path class="cls-1" d="M42.22,16.24a6.18,6.18,0,0,0,.64,1.4,3,3,0,0,0,.74.83,1.59,1.59,0,0,0,.8.36,1.5,1.5,0,0,0,.76-.07,1.55,1.55,0,0,0,.66-.42,1.69,1.69,0,0,0,.41-.76,3.34,3.34,0,0,0,.09-1.11A6.17,6.17,0,0,0,46,15a6.59,6.59,0,0,0-.64-1.4,3.69,3.69,0,0,0-.74-.84,1.66,1.66,0,0,0-.8-.35,1.62,1.62,0,0,0-.76.06,1.76,1.76,0,0,0-.65.39,2,2,0,0,0-.42.76,3.28,3.28,0,0,0-.09,1.13A6.09,6.09,0,0,0,42.22,16.24Z"/><path class="cls-1" d="M48.23,112.06c-.11-.4-.24-.83-.38-1.27s-.25-.76-.38-1.15C29.8,104.24,17,88.33,17,67.71a46.68,46.68,0,0,1,2.76-16c0-.12,0-.24-.05-.37-.13-1.06-.3-2.22-.48-3.37a46.29,46.29,0,0,0,29,64.08Z"/><path class="cls-1" d="M28.05,22.13a1.37,1.37,0,0,0-.6-.46,1,1,0,0,0-.59-.06,1.61,1.61,0,0,0-.58.24c-.16.11-.37.26-.62.47l-.24.2,1.88,2.33.12-.1.46-.37a3.62,3.62,0,0,0,.34-.34,1.63,1.63,0,0,0,.21-.34.82.82,0,0,0,.1-.36,1.27,1.27,0,0,0-.08-.6A3,3,0,0,0,28.05,22.13Z"/><path class="cls-2" d="M101.13,44.42a1.62,1.62,0,0,1-.1-.18c0,.13,0,.27-.07.41h0c0,.07.07.14.1.2C101.08,44.71,101.11,44.56,101.13,44.42Z"/><path class="cls-2" d="M102.72,47.45c0,.16,0,.31-.07.47a46.31,46.31,0,0,1-29,64.16l-.09.31a46.57,46.57,0,0,0,29.2-64.94Z"/><path class="cls-2" d="M61,21.32a45.73,45.73,0,0,1,28.93,10.3l.27-.12a46,46,0,0,0-58.56.14l.27.12A45.73,45.73,0,0,1,61,21.32Z"/><path class="cls-2" d="M20.85,44.29l-.09.17.06.44.11-.2C20.9,44.56,20.88,44.42,20.85,44.29Z"/><path class="cls-2" d="M14.87,67.59A46,46,0,0,1,19.24,48c0-.16,0-.32-.08-.47a46.57,46.57,0,0,0,29.16,64.86c0-.1,0-.2-.09-.31A46.32,46.32,0,0,1,14.87,67.59Z"/><path class="cls-3" d="M47.47,109.64c-.22-.68-.46-1.37-.68-2l-.39-1.12a40.87,40.87,0,0,1-12.5-7.27l-.21.07a.76.76,0,0,1-.31-.52,39.68,39.68,0,0,1-4.06-4.14,12.19,12.19,0,0,1-2.17,0c-.39,0-.61-.08-.61-.08a.89.89,0,0,1,.22-.4A14.48,14.48,0,0,1,28,92.91c-.23-.29-.44-.59-.66-.89-.79.43-1.36.72-1.36.72a3.52,3.52,0,0,1,.8-1.51,42,42,0,0,1-7.08-23.77A44.68,44.68,0,0,1,21,56.4a15.84,15.84,0,0,1-1-2.54c0-.59-.11-1.33-.21-2.14a46.68,46.68,0,0,0-2.76,16C17,88.33,29.8,104.24,47.47,109.64Z"/><path class="cls-3" d="M21.43,47.75c-.05.11-.1.23-.16.34.07.45.12.87.18,1.24.14,1,.23,1.66.23,1.66a11.21,11.21,0,0,0,.21,2.39c.09-.25.16-.51.25-.75C22,51.1,21.68,49.33,21.43,47.75Z"/><path class="cls-3" d="M60.72,23.4a43.71,43.71,0,0,0-27.09,9.17L36,33.68a41.58,41.58,0,0,1,25.11-8.24,42.14,42.14,0,0,1,24.89,8l1.93-.91A44.5,44.5,0,0,0,60.72,23.4Z"/><path class="cls-3" d="M104.9,67.71a46,46,0,0,0-2.79-15.93c-.09.7-.15,1.34-.18,1.86a16.48,16.48,0,0,1-.62,1.68A44,44,0,0,1,103,67.46a41.94,41.94,0,0,1-7.38,24.2,2.06,2.06,0,0,1,.36.86l-.71-.37c-.25.36-.52.71-.79,1.06.54.56.89,1,.89,1.16a9.09,9.09,0,0,1-1.91.12,40.62,40.62,0,0,1-18.14,12.35l-.38,1.09c-.2.57-.39,1.15-.58,1.74C92.07,104.29,104.9,88.36,104.9,67.71Z"/><path class="cls-3" d="M28.63,19.66a2.33,2.33,0,0,0-1.23-.3,3,3,0,0,0-1.1.24,4.94,4.94,0,0,0-1.12.7l-2.66,2.15,6.29,7.8,1.73-1.39-2.06-2.55.9-.73A3.9,3.9,0,0,0,30,25a3.52,3.52,0,0,0,.4-.63,2.77,2.77,0,0,0,.22-.67,3.08,3.08,0,0,0,.08-.68,2.83,2.83,0,0,0-.22-1.18,4.74,4.74,0,0,0-.69-1.16A3.72,3.72,0,0,0,28.63,19.66Zm-.2,4a1.63,1.63,0,0,1-.21.34,3.62,3.62,0,0,1-.34.34l-.46.37-.12.1-1.88-2.33.24-.2c.25-.21.46-.36.62-.47a1.61,1.61,0,0,1,.58-.24,1,1,0,0,1,.59.06,1.37,1.37,0,0,1,.6.46,3,3,0,0,1,.4.61,1.27,1.27,0,0,1,.08.6A.82.82,0,0,1,28.43,23.7Z"/><path class="cls-3" d="M37.2,15.87a2.84,2.84,0,0,0-.9-1,2.47,2.47,0,0,0-1.08-.39,2.67,2.67,0,0,0-1.09.11,7.62,7.62,0,0,0-1.16.53l-3.1,1.74,4.9,8.74,1.92-1.07-1.8-3.21.69-.39,3.94,2,2.36-1.32-4.67-2.27a3.35,3.35,0,0,0,.51-1.59A3.42,3.42,0,0,0,37.2,15.87Zm-1.64,2.58a1.1,1.1,0,0,1-.34.51,4.43,4.43,0,0,1-.66.44l-.55.31-1.32-2.36.65-.36c.22-.12.41-.22.57-.29a1.54,1.54,0,0,1,.46-.11.9.9,0,0,1,.58.16,1.62,1.62,0,0,1,.42.5,2.07,2.07,0,0,1,.25.65A1.28,1.28,0,0,1,35.56,18.45Z"/><path class="cls-3" d="M42.34,20.22a4.2,4.2,0,0,0,5.94-2,5.81,5.81,0,0,0-.13-4A5.87,5.87,0,0,0,45.86,11a3.85,3.85,0,0,0-3.42-.33A3.81,3.81,0,0,0,39.92,13a5.93,5.93,0,0,0,.13,4A5.91,5.91,0,0,0,42.34,20.22ZM42,13.6a2,2,0,0,1,.42-.76,1.76,1.76,0,0,1,.65-.39,1.62,1.62,0,0,1,.76-.06,1.66,1.66,0,0,1,.8.35,3.69,3.69,0,0,1,.74.84A6.59,6.59,0,0,1,46,15a6.17,6.17,0,0,1,.33,1.49,3.34,3.34,0,0,1-.09,1.11,1.69,1.69,0,0,1-.41.76,1.55,1.55,0,0,1-.66.42,1.5,1.5,0,0,1-.76.07,1.59,1.59,0,0,1-.8-.36,3,3,0,0,1-.74-.83,6.18,6.18,0,0,1-.64-1.4,6.09,6.09,0,0,1-.33-1.51A3.28,3.28,0,0,1,42,13.6Z"/><polygon class="cls-3" points="55.05 8.17 49.21 9.02 50.65 18.94 52.83 18.62 52.21 14.36 55.58 13.87 55.3 11.97 51.93 12.47 51.66 10.59 55.32 10.06 55.05 8.17"/><polygon class="cls-3" points="63.37 10.05 63.4 8.14 57.44 8.05 57.28 18.07 63.24 18.16 63.27 16.25 59.51 16.2 59.55 13.67 63.01 13.72 63.04 11.81 59.58 11.76 59.61 10 63.37 10.05"/><path class="cls-3" d="M67.47,12.2a3.07,3.07,0,0,1,.72-.92,2,2,0,0,1,.86-.45,2,2,0,0,1,.89,0,1.85,1.85,0,0,1,.73.28,3.69,3.69,0,0,1,.61.48,6.94,6.94,0,0,1,.46.53l.33.46.22,0,.42-2.35c-.13-.11-.3-.25-.51-.4a4.33,4.33,0,0,0-.6-.39,4.6,4.6,0,0,0-.75-.33,6.45,6.45,0,0,0-.92-.24,3.91,3.91,0,0,0-3.36.84,5.8,5.8,0,0,0-1.82,3.53,5.7,5.7,0,0,0,.46,4,4,4,0,0,0,2.86,1.9,5.2,5.2,0,0,0,1,.1,5.91,5.91,0,0,0,.8-.07,5.47,5.47,0,0,0,.7-.16l.6-.19.42-2.32-.2,0-.45.31a4.6,4.6,0,0,1-.59.32,3,3,0,0,1-.72.24,2.21,2.21,0,0,1-.85,0,2.28,2.28,0,0,1-.8-.32,2,2,0,0,1-.66-.67,3.09,3.09,0,0,1-.38-1.11A4.86,4.86,0,0,1,67,13.68,5.47,5.47,0,0,1,67.47,12.2Z"/><polygon class="cls-3" points="75.65 21.05 78.25 13.37 80.72 14.2 81.33 12.39 74.3 10.02 73.69 11.82 76.15 12.66 73.56 20.34 75.65 21.05"/><path class="cls-3" d="M85,14.09l-2-1-2.85,5.73a4,4,0,0,0-.41,3,3.62,3.62,0,0,0,2,2.09,3.62,3.62,0,0,0,2.92.34,4,4,0,0,0,2.1-2.13l2.84-5.73-2-1L84.87,21a2.82,2.82,0,0,1-1,1.25,1.27,1.27,0,0,1-1.22-.06,1.26,1.26,0,0,1-.78-1,2.77,2.77,0,0,1,.38-1.55Z"/><path class="cls-3" d="M92.31,20.63a1,1,0,0,1,.48-.07,1.47,1.47,0,0,1,.5.11,2.91,2.91,0,0,1,.46.24,3.46,3.46,0,0,1,1,1.07,4.35,4.35,0,0,1,.56,1.33l.17.1,1.24-1.92a6.55,6.55,0,0,0-.9-1.17,7.3,7.3,0,0,0-1.22-1A3.94,3.94,0,0,0,92,18.63,2.85,2.85,0,0,0,89.86,20a3.31,3.31,0,0,0-.57,1.7,3,3,0,0,0,.64,1.73,5.49,5.49,0,0,0,.64.76l.67.74a1.59,1.59,0,0,1,.33.63.8.8,0,0,1-.11.65.92.92,0,0,1-.43.37,1.08,1.08,0,0,1-.5.06,1.4,1.4,0,0,1-.5-.15,3.62,3.62,0,0,1-.45-.23,3.86,3.86,0,0,1-1.11-1.13,4.72,4.72,0,0,1-.7-1.62l-.17-.11-1.29,2a8.3,8.3,0,0,0,.89,1.23,6.3,6.3,0,0,0,1.38,1.16,4.05,4.05,0,0,0,2.83.75,3,3,0,0,0,2.17-1.45,2.88,2.88,0,0,0,.54-1.66,3.1,3.1,0,0,0-.59-1.59c-.2-.27-.39-.51-.58-.72l-.6-.66a2.19,2.19,0,0,1-.55-.84.76.76,0,0,1,.13-.64A.79.79,0,0,1,92.31,20.63Z"/><polygon class="cls-3" points="2.85 86.75 6.7 85.35 6.38 84.47 4.18 85.27 5.93 83.25 5.51 82.07 1.66 83.47 1.98 84.34 4.66 83.37 2.52 85.82 2.85 86.75"/><polygon class="cls-3" points="4.67 89.22 4.44 88.68 6.89 87.64 7.12 88.18 7.78 87.9 6.92 85.88 6.27 86.16 6.49 86.7 4.04 87.74 3.82 87.2 3.16 87.47 4.01 89.5 4.67 89.22"/><path class="cls-3" d="M4.5,90.72a2,2,0,0,0,.36.54,1.28,1.28,0,0,0,.45.32,1.1,1.1,0,0,0,.48.08,1.43,1.43,0,0,0,.49-.13l2.61-1.24-.83-1.76-.67.31.4.85-1.49.69L6,90.55a1,1,0,0,1-.32.07.44.44,0,0,1-.28-.1,1,1,0,0,1-.25-.34,1.09,1.09,0,0,1-.1-.33,1.41,1.41,0,0,1,0-.28l0-.08-.75.35c0,.12.07.26.12.41Z"/><polygon class="cls-3" points="7.57 96.53 11.16 94.58 10.6 93.55 8.4 93.72 9.74 91.96 9.18 90.93 5.59 92.88 6.05 93.72 8.43 92.43 7.25 93.92 7.58 94.53 9.47 94.34 7.09 95.64 7.57 96.53"/><polygon class="cls-3" points="10.22 99.3 9.3 97.83 10.18 97.28 11.03 98.63 11.69 98.22 10.84 96.86 11.44 96.48 12.37 97.95 13.03 97.54 11.56 95.21 8.1 97.38 9.57 99.71 10.22 99.3"/><polygon class="cls-3" points="13.01 101.49 13.65 101.04 12.73 99.73 13.31 99.32 14.31 100.73 14.95 100.28 13.36 98.04 10.02 100.39 11.61 102.64 12.25 102.19 11.25 100.78 12.09 100.18 13.01 101.49"/><path class="cls-3" d="M13.83,105.42a5.42,5.42,0,0,0,.6.41L16,104.57l-1.12-1.39-.59.48.49.62-.62.5-.09-.1-.08-.1a1.33,1.33,0,0,1-.35-1,1.41,1.41,0,0,1,.6-.94,1.7,1.7,0,0,1,.51-.3,1.46,1.46,0,0,1,.49-.06,1.08,1.08,0,0,1,.44.14,1.53,1.53,0,0,1,.36.32,1.29,1.29,0,0,1,.22.37,1.53,1.53,0,0,1,.1.38,1.51,1.51,0,0,1,0,.32v.27l.06.07.74-.6a3.19,3.19,0,0,0-.21-.68,2.75,2.75,0,0,0-.44-.71,2.09,2.09,0,0,0-1.43-.86,2.13,2.13,0,0,0-1.56.52,2,2,0,0,0-.34,3A3.43,3.43,0,0,0,13.83,105.42Z"/><path class="cls-3" d="M15.67,107.67a2.05,2.05,0,0,0,1.15.69,1.15,1.15,0,0,0,1-.31,1.08,1.08,0,0,0,.37-.61,1.51,1.51,0,0,0-.12-.75c-.06-.14-.13-.26-.19-.38l-.2-.35a1.16,1.16,0,0,1-.17-.43.34.34,0,0,1,.11-.25.41.41,0,0,1,.19-.08.52.52,0,0,1,.21,0,.75.75,0,0,1,.2.11,1.41,1.41,0,0,1,.18.17,1.83,1.83,0,0,1,.36.58,2.15,2.15,0,0,1,.13.63l.06.07.69-.63a3.72,3.72,0,0,0-.29-.61A3.54,3.54,0,0,0,19,105a1.89,1.89,0,0,0-1.07-.65,1.11,1.11,0,0,0-1,.27,1.17,1.17,0,0,0-.38.63,1.35,1.35,0,0,0,.13.8,2,2,0,0,0,.21.41l.22.4a.86.86,0,0,1,.09.3.31.31,0,0,1-.1.26.41.41,0,0,1-.21.1.54.54,0,0,1-.22,0,.67.67,0,0,1-.2-.13.89.89,0,0,1-.17-.16,1.75,1.75,0,0,1-.38-.62,2.21,2.21,0,0,1-.17-.77l-.06-.06-.71.65a4.88,4.88,0,0,0,.27.64A3.77,3.77,0,0,0,15.67,107.67Z"/><polygon class="cls-3" points="21.67 108.92 22.21 108.36 20.23 106.44 17.39 109.39 19.37 111.3 19.92 110.74 18.67 109.53 19.38 108.79 20.53 109.9 21.07 109.34 19.93 108.23 20.42 107.71 21.67 108.92"/><path class="cls-3" d="M24,111.07h.21a.73.73,0,0,1,.22.09l.2.13a1.73,1.73,0,0,1,.44.53,2.12,2.12,0,0,1,.23.6l.07.06.58-.73a2.64,2.64,0,0,0-.38-.56,3.14,3.14,0,0,0-.52-.51,2,2,0,0,0-1.16-.48,1.09,1.09,0,0,0-1,.42,1.15,1.15,0,0,0-.28.68,1.35,1.35,0,0,0,.25.78,2.17,2.17,0,0,0,.27.37l.28.36a.69.69,0,0,1,.13.29.29.29,0,0,1-.06.27.31.31,0,0,1-.19.12.45.45,0,0,1-.23,0,.73.73,0,0,1-.22-.09l-.19-.13a2,2,0,0,1-.47-.56A2.36,2.36,0,0,1,22,112l-.07,0-.61.75a4.21,4.21,0,0,0,.38.59,3.2,3.2,0,0,0,.58.59,2.06,2.06,0,0,0,1.24.51,1.17,1.17,0,0,0,1-.46,1.09,1.09,0,0,0,.27-.67,1.41,1.41,0,0,0-.23-.71,3.53,3.53,0,0,0-.24-.35l-.26-.32a1.14,1.14,0,0,1-.23-.4.36.36,0,0,1,.07-.26A.34.34,0,0,1,24,111.07Z"/><polygon class="cls-3" points="27.59 113.61 28.58 114.3 29.03 113.66 26.22 111.69 25.77 112.33 26.76 113.02 24.86 115.73 25.69 116.32 27.59 113.61"/><path class="cls-3" d="M28.54,118.25a1.8,1.8,0,0,0,1.3.31,1.52,1.52,0,0,0,1-.77l1.34-2.23-.87-.53L30,117.21a1,1,0,0,1-.47.47.67.67,0,0,1-.55-.1.6.6,0,0,1-.34-.45,1.07,1.07,0,0,1,.19-.62l1.32-2.19-.88-.52L27.88,116a1.53,1.53,0,0,0-.22,1.23A1.87,1.87,0,0,0,28.54,118.25Z"/><path class="cls-3" d="M32.79,120.41a1.64,1.64,0,0,0,.73.07,2,2,0,0,0,.88-.33,2.28,2.28,0,0,0,.93-1.83,1.8,1.8,0,0,0-.25-.91,1.78,1.78,0,0,0-.51-.55,7.4,7.4,0,0,0-.69-.41l-1.13-.57-1.84,3.66,1.14.57A5,5,0,0,0,32.79,120.41Zm.53-3.39h0l.48.26a1,1,0,0,1,.51.9,1.56,1.56,0,0,1-.19.68,1.63,1.63,0,0,1-.42.55,1,1,0,0,1-.54.22.93.93,0,0,1-.47-.07l-.52-.25h0Z"/><polygon class="cls-3" points="37.98 120.81 38.29 120.09 36.81 119.47 37.09 118.81 38.69 119.48 38.99 118.77 36.45 117.7 34.87 121.47 37.41 122.53 37.71 121.81 36.11 121.14 36.51 120.19 37.98 120.81"/><polygon class="cls-3" points="40.01 120.45 40.57 123.66 41.51 123.98 42.83 120.11 41.95 119.81 41.19 122.02 40.72 119.39 39.53 118.98 38.2 122.85 39.09 123.15 40.01 120.45"/><polygon class="cls-3" points="44.19 124.72 45.06 121.53 46.22 121.85 46.43 121.1 43.12 120.2 42.92 120.95 44.08 121.27 43.21 124.46 44.19 124.72"/><polygon class="cls-3" points="49.29 122.5 49.45 121.74 46.76 121.17 45.9 125.16 48.6 125.74 48.76 124.98 47.06 124.61 47.28 123.6 48.84 123.94 49.01 123.18 47.44 122.84 47.59 122.14 49.29 122.5"/><polygon class="cls-3" points="50.79 123.23 51.9 126.28 52.88 126.43 53.5 122.39 52.58 122.25 52.22 124.56 51.29 122.05 50.05 121.86 49.43 125.9 50.35 126.04 50.79 123.23"/><polygon class="cls-3" points="58.14 122.82 56.71 124.53 56.84 122.72 55.82 122.64 55.52 126.72 56.54 126.8 56.64 125.42 56.86 125.16 57.85 126.89 59.08 126.98 57.73 124.69 59.32 122.9 58.14 122.82"/><path class="cls-3" d="M60.55,125.53h.36L62,127l1.25,0-1.35-1.76a1.51,1.51,0,0,0,.57-.46,1.31,1.31,0,0,0,.22-.75,1,1,0,0,0-.13-.55,1,1,0,0,0-.34-.36,1.3,1.3,0,0,0-.46-.18,2.65,2.65,0,0,0-.59,0l-1.64,0,0,4.09h1Zm0-1.84h.34l.29,0,.21.05a.36.36,0,0,1,.2.18.44.44,0,0,1,0,.26.56.56,0,0,1,0,.28.49.49,0,0,1-.14.18.47.47,0,0,1-.26.11,1.86,1.86,0,0,1-.36,0h-.29Z"/><path class="cls-3" d="M64.64,126l1.28-.11.33.81,1-.1-1.73-3.94-1.12.1-1,4.19,1-.09Zm.45-2.13.54,1.3-.83.08Z"/><path class="cls-3" d="M68.07,126a1.91,1.91,0,0,0,1.52.34,2.2,2.2,0,0,0,.45-.1,2.31,2.31,0,0,0,.35-.14,1.91,1.91,0,0,0,.28-.15l.24-.16-.14-1h-.09l-.16.18a2.08,2.08,0,0,1-.21.21,1.32,1.32,0,0,1-.29.19.91.91,0,0,1-.37.13,1.28,1.28,0,0,1-.39,0,1.13,1.13,0,0,1-.39-.17,1.22,1.22,0,0,1-.32-.38,1.62,1.62,0,0,1-.19-.62,1.66,1.66,0,0,1,0-.63,1.14,1.14,0,0,1,.19-.46,1,1,0,0,1,.31-.29,1.12,1.12,0,0,1,.39-.13,1.09,1.09,0,0,1,.36,0l.33.1c.1,0,.2.09.28.14l.21.13h.1l-.14-1-.28-.08-.32-.07-.38,0a3.77,3.77,0,0,0-.44,0,1.9,1.9,0,0,0-1.35.78,2.23,2.23,0,0,0-.31,1.62A2.14,2.14,0,0,0,68.07,126Z"/><polygon class="cls-3" points="74.04 125.48 75.05 125.28 74.22 121.27 73.22 121.48 73.52 122.94 72.16 123.22 71.86 121.76 70.85 121.97 71.68 125.97 72.68 125.76 72.31 123.99 73.68 123.71 74.04 125.48"/><polygon class="cls-3" points="77.85 120.33 74.54 121.2 74.73 121.95 75.9 121.65 76.74 124.85 77.73 124.58 76.89 121.39 78.05 121.08 77.85 120.33"/><path class="cls-3" d="M80.84,122.88l-.2.13a1,1,0,0,1-.22.08,2.09,2.09,0,0,1-.72.09,2.61,2.61,0,0,1-.77-.18l-.08,0,.29.92a3.92,3.92,0,0,0,.69,0,3.22,3.22,0,0,0,.81-.16,2.09,2.09,0,0,0,1.12-.74,1.19,1.19,0,0,0,.16-1.08,1,1,0,0,0-.4-.59,1.43,1.43,0,0,0-.73-.21h-.42l-.41,0a1,1,0,0,1-.45,0,.28.28,0,0,1-.18-.2.28.28,0,0,1,0-.2.57.57,0,0,1,.12-.18l.19-.14.23-.09a1.72,1.72,0,0,1,.68-.07,2.26,2.26,0,0,1,.62.14l.09,0-.28-.89a2.58,2.58,0,0,0-.68,0,3.45,3.45,0,0,0-.71.15,1.93,1.93,0,0,0-1,.7,1.08,1.08,0,0,0-.18,1,1.15,1.15,0,0,0,.41.62,1.32,1.32,0,0,0,.78.22,2.43,2.43,0,0,0,.46,0l.45,0a.68.68,0,0,1,.32,0,.29.29,0,0,1,.19.2.3.3,0,0,1,0,.23A.46.46,0,0,1,80.84,122.88Z"/><path class="cls-3" d="M84.27,121a1.39,1.39,0,0,0,.27-.21.91.91,0,0,0,.2-.24,1.18,1.18,0,0,0,.24-.76,1.73,1.73,0,0,0-.11-.54,1.41,1.41,0,0,0-.33-.53,1,1,0,0,0-.48-.25,1.39,1.39,0,0,0-.5,0,2.63,2.63,0,0,0-.6.15l-1.48.56L82.92,123l1-.36-.47-1.25.5-.19A2,2,0,0,0,84.27,121Zm-.46-.68-.14.11-.21.09-.25.1-.07,0-.43-1.15.14-.05.34-.12a1.2,1.2,0,0,1,.28,0,.63.63,0,0,1,.25.09.58.58,0,0,1,.18.25,1.56,1.56,0,0,1,.07.3.6.6,0,0,1-.06.24A.41.41,0,0,1,83.81,120.33Z"/><path class="cls-3" d="M87.93,117a1.9,1.9,0,0,0-1.56.07,1.84,1.84,0,0,0-1.08,1.11,2.23,2.23,0,0,0,.16,1.64,2.13,2.13,0,0,0,1.11,1.2,1.84,1.84,0,0,0,1.55-.06,1.86,1.86,0,0,0,1.09-1.11,2.18,2.18,0,0,0-.15-1.64A2.23,2.23,0,0,0,87.93,117Zm.33,2.7a.84.84,0,0,1-.17.34.86.86,0,0,1-.29.21,1,1,0,0,1-.34.08.86.86,0,0,1-.37-.1,1.25,1.25,0,0,1-.36-.3,2.19,2.19,0,0,1-.32-.54,2.35,2.35,0,0,1-.19-.61,1.14,1.14,0,0,1,0-.46.82.82,0,0,1,.17-.35.84.84,0,0,1,.28-.2,1,1,0,0,1,.35-.07.7.7,0,0,1,.36.1,1.09,1.09,0,0,1,.36.3,2.08,2.08,0,0,1,.32.54,2,2,0,0,1,.19.59A1.47,1.47,0,0,1,88.26,119.73Z"/><path class="cls-3" d="M92.8,118.57l1.1-.58-2-.9a1.36,1.36,0,0,0,.28-.67,1.25,1.25,0,0,0-.17-.77,1.06,1.06,0,0,0-.37-.43,1.24,1.24,0,0,0-.47-.15,1.4,1.4,0,0,0-.5.06,5.71,5.71,0,0,0-.54.24l-1.45.77,1.92,3.61.9-.47-.7-1.33.32-.17Zm-2.12-1.41-.26.14-.51-1,.3-.16a2.08,2.08,0,0,1,.26-.13.54.54,0,0,1,.21-.05.38.38,0,0,1,.26.06.42.42,0,0,1,.17.2.6.6,0,0,1,.09.27.45.45,0,0,1,0,.23A.46.46,0,0,1,91,117,1.68,1.68,0,0,1,90.68,117.16Z"/><polygon class="cls-3" points="95.82 116.78 94.09 113.97 95.12 113.34 94.71 112.67 91.79 114.47 92.2 115.14 93.22 114.5 94.95 117.32 95.82 116.78"/><polygon class="cls-3" points="100.33 113.66 99 109.55 98.17 110.17 99.13 112.92 96.76 111.23 95.91 111.87 99.48 114.3 100.33 113.66"/><polygon class="cls-3" points="103.95 110.67 103.45 110.08 102.13 111.21 101.46 110.42 102.67 109.38 102.16 108.79 100.95 109.83 100.48 109.29 101.8 108.16 101.29 107.57 99.2 109.36 101.87 112.46 103.95 110.67"/><path class="cls-3" d="M106.4,108.3l.88-.87-2.19-.27a1.42,1.42,0,0,0,.07-.73,1.2,1.2,0,0,0-.38-.69,1,1,0,0,0-1-.31,1.3,1.3,0,0,0-.45.2,3.65,3.65,0,0,0-.45.39l-1.17,1.15,2.88,2.9.72-.71-1-1.07.26-.25Zm-2.19-1a2.6,2.6,0,0,1-.24.27l-.21.21L103,107l.24-.24.21-.2a.77.77,0,0,1,.19-.11.4.4,0,0,1,.26,0,.65.65,0,0,1,.23.15.6.6,0,0,1,.16.23.45.45,0,0,1,0,.23A.52.52,0,0,1,104.21,107.29Z"/><polygon class="cls-3" points="109.4 105 108.81 104.49 107.67 105.79 106.89 105.11 107.95 103.91 107.36 103.39 106.31 104.59 105.77 104.12 106.92 102.82 106.33 102.3 104.51 104.37 107.58 107.07 109.4 105"/><polygon class="cls-3" points="112.07 101.55 108.82 99.08 108.25 99.82 110.12 101.24 107.47 100.86 106.71 101.86 109.96 104.33 110.53 103.58 108.26 101.86 111.48 102.33 112.07 101.55"/><polygon class="cls-3" points="113.74 99.04 113.14 98.65 112.82 99.14 110.6 97.67 110.93 97.18 110.33 96.78 109.12 98.61 109.72 99.01 110.04 98.52 112.26 99.99 111.93 100.47 112.53 100.87 113.74 99.04"/><path class="cls-3" d="M115.2,96.77a3.39,3.39,0,0,0,.33-.78,4.52,4.52,0,0,0,.16-.71l-1.74-1-.89,1.54.66.39.4-.69.69.4a.34.34,0,0,1-.06.12l-.06.11a1.34,1.34,0,0,1-.78.68,1.42,1.42,0,0,1-1.1-.22,2,2,0,0,1-.46-.37,1.29,1.29,0,0,1-.23-.43,1.21,1.21,0,0,1,0-.46,1.35,1.35,0,0,1,.17-.46,1.5,1.5,0,0,1,.27-.34,1.66,1.66,0,0,1,.31-.23,1.57,1.57,0,0,1,.29-.14l.24-.1,0-.08-.83-.48A4.36,4.36,0,0,0,112,94a2.83,2.83,0,0,0-.5.67,2.11,2.11,0,0,0-.28,1.64,2.43,2.43,0,0,0,2.7,1.56A2.11,2.11,0,0,0,115.2,96.77Z"/><polygon class="cls-3" points="117.22 92.75 116.58 92.44 116.32 92.96 113.94 91.77 114.2 91.24 113.57 90.92 112.58 92.88 113.22 93.2 113.48 92.68 115.86 93.87 115.6 94.4 116.24 94.72 117.22 92.75"/><polygon class="cls-3" points="118.96 88.82 115.21 87.2 114.84 88.06 116.99 88.99 114.32 89.25 113.83 90.41 117.58 92.03 117.95 91.17 115.33 90.04 118.57 89.73 118.96 88.82"/><path class="cls-3" d="M120,86.17a3.71,3.71,0,0,0,.18-.83,4.91,4.91,0,0,0,0-.73l-1.89-.67-.6,1.67.72.26.27-.74.75.26,0,.13s0,.09,0,.12a1.39,1.39,0,0,1-.65.81,1.41,1.41,0,0,1-1.12,0,1.71,1.71,0,0,1-.52-.28,1.33,1.33,0,0,1-.31-.38,1.24,1.24,0,0,1-.11-.45,1.36,1.36,0,0,1,.09-.48,1.25,1.25,0,0,1,.2-.38,1.41,1.41,0,0,1,.26-.28l.26-.2.22-.14,0-.09-.9-.32a5.43,5.43,0,0,0-.47.53,2.9,2.9,0,0,0-.37.75,2.14,2.14,0,0,0,0,1.67,2.12,2.12,0,0,0,4-.21Z"/><path class="cls-3" d="M38.55,58.25c-1.28-.85.21-2,.21-2L40,51.63A5.53,5.53,0,0,0,38,53.06a55.12,55.12,0,0,0-5.05,5.83l5.85,5,1.39,1.19Z"/><path class="cls-3" d="M32.68,33.32a14.92,14.92,0,0,0-1.68-.7l-.13,0-.29-.1c-1.07-.42-4.2-1.87-8.62-6a37,37,0,0,0-1.62,6.69A29.81,29.81,0,0,0,20,37.36a21.81,21.81,0,0,0,.47,5c.06.31.14.62.22.93l.18,1c0,.13,0,.27.07.41.13.8.31,1.88.5,3,.25,1.58.52,3.35.71,4.88.12.92.2,1.76.24,2.42a11.65,11.65,0,0,0,2.14,4.17,2.29,2.29,0,0,0,1.27.74s-.47-1.11-.92-2.61A16.86,16.86,0,0,1,24,52.27s-.09-.64-.22-1.6c-.28-2.06-.77-5.61-1.06-7.58,0,0-.46-4.49-.43-7.87,0-.23,0-.45,0-.67,0,0,6.38,7,8.29,9.61,0,0,.11.2.28.56A39.67,39.67,0,0,1,33,50c.21.68.41,1.39.59,2.13l10.74-8.23L44.51,39l-1.08-.53C41.64,37.61,38,35.8,35,34.42,34.16,34,33.35,33.62,32.68,33.32Z"/><path class="cls-3" d="M26.85,58.68a18.6,18.6,0,0,0-.19,5c0,.09.05.18.08.25s.52.2,1.1.38a3.93,3.93,0,0,0,1.46.26s-.05-.37-.09-.91c-.08-1.2-.08-3.23.73-3.89,0,0,1.27-3-.11-4.59L29.94,46l-1.82,8.31-.1.45A12.16,12.16,0,0,1,26.85,58.68Z"/><path class="cls-3" d="M29.19,72.14s1.35-.64,1.63-1.29c0,0,.06,2.44-.13,4.65A9.48,9.48,0,0,1,30,78.61s0,.1-.09.26a1.92,1.92,0,0,0,.45,1.88,11.55,11.55,0,0,1-1.3,4.63A20.4,20.4,0,0,1,28,87.44s3.61-2.06,4.25-3.27c0,0,.12-.7.18-1.59a11.93,11.93,0,0,0,0-1.2,3.42,3.42,0,0,0-.54-2s-1-1.57.07-2.64a10.14,10.14,0,0,0,1.22-2.51c.89-2.63,1.23-7-3.42-11.08,0,0,0,.45,0,1.15C29.8,66.35,29.77,70.5,29.19,72.14Z"/><path class="cls-3" d="M39.83,72.71s4.75,6.26,5,7.83a75.28,75.28,0,0,0,7.87,6.76l.43.29s.64-2.78-.36-3.78c0,0-.49-2.49-.07-2.63,0,0-11.84-11-13-11.32l-.12.14A2.07,2.07,0,0,0,39.83,72.71Z"/><path class="cls-3" d="M34.23,85a66.7,66.7,0,0,0-5.61,6.33A3,3,0,0,0,28,92.57l.72-.39a38.3,38.3,0,0,0,5.37-3.38A69.49,69.49,0,0,0,28.76,94a.91.91,0,0,0-.21.38s.21,0,.58.08a10.52,10.52,0,0,0,1.54,0,13.61,13.61,0,0,0,5.82-1.74l.21,0c1-.2,4.92-.84.72,2.75,0,0-3.28,2.28-2.22,3.39a.81.81,0,0,0,.09.1s6.17-2,6.66-2.85a3.42,3.42,0,0,0-.7-2.92,5.41,5.41,0,0,0,0-1.54,6.23,6.23,0,0,0-1.94-3.73,8,8,0,0,0-2.16-1.42s-.35-1.78-1.06-2.14c0,0-.36-9.25-1.56-10,0,0-.2,2.49-.33,5.09A31.33,31.33,0,0,0,34.23,85Z"/><path class="cls-3" d="M44,95.49s.64,5.84,2.55,8.4c0,0,.49,1.35,1.06,3,.33,1,.68,2,1,3s.52,1.73.68,2.38l.06.3a3.94,3.94,0,0,1,.12.7s-.23,1.42,1.58,3.34a11.77,11.77,0,0,0,1.83,1.55,20.54,20.54,0,0,0,2.87,1.65c.59.29,1.24.58,2,.86a23.9,23.9,0,0,1-2-2.51,31.19,31.19,0,0,1-4.42-8.88s-.45-2.31-.89-5.35a78.42,78.42,0,0,1-.81-8.46,1,1,0,0,0,0-.48,3.58,3.58,0,0,0-.49-1,9.78,9.78,0,0,0-1.59-1.76s-9.5-12.39-9.85-14l0,2.06,0,1.86S43.3,92.36,44,95.49Z"/><path class="cls-3" d="M40.82,80.82s3,3.13,3.26,4.06A16.11,16.11,0,0,0,47,88.51s4.25,8.29,5.66,11.6a8.45,8.45,0,0,1,.44,1.22l.28-9.83s-8.65-7.9-10.14-9.89c0,0-2.27-4.92-2.84-6.91l-.06-.12a4,4,0,0,0-.79-1.07c-.25-.19-.48-.15-.56.47h0A53.32,53.32,0,0,1,40.82,80.82Z"/><path class="cls-3" d="M83.36,58l-1.6,6.83,1.38-1.18,5.86-5a55.12,55.12,0,0,0-5-5.83,5.46,5.46,0,0,0-2.08-1.43L83.15,56S84.64,57.19,83.36,58Z"/><path class="cls-3" d="M97.39,59a11.65,11.65,0,0,0,2.14-4.17c0-.88.19-2.09.37-3.39,0-.11,0-.23,0-.34v.21l.24.64a8.11,8.11,0,0,0,0-1.2s.15-1.09.36-2.58c0-.11-.1-.23-.16-.34h0c.19-1.22.38-2.34.53-3.19h0c0-.14,0-.28.07-.41h0c.12-.71.2-1.15.2-1.15.08-.3.15-.61.22-.92a21.52,21.52,0,0,0,.47-5,31.2,31.2,0,0,0-.35-4.23A37,37,0,0,0,100,26.22C95.26,30.66,92,32,91.16,32.33l-.25.08,0,0a18.8,18.8,0,0,0-2,.83l-1.9.88c-2.93,1.39-6.69,3.24-8.51,4.14l-1.08.54.22,4.91L88.36,52c.18-.73.38-1.44.59-2.13a39.33,39.33,0,0,1,2.39-5.88c.37-.49.91-1.16,1.54-1.91,2.59-3.1,6.69-7.63,6.75-7.69h0c0,.22,0,.45,0,.68v.19c0,3.35-.43,7.68-.43,7.68-.24,1.63-.62,4.37-.91,6.44l-.37,2.74A16.85,16.85,0,0,1,97,57.13c-.45,1.5-.92,2.62-.92,2.62A2.29,2.29,0,0,0,97.39,59Z"/><path class="cls-3" d="M94.07,64.08c.58-.18,1.1-.38,1.1-.38s0-.16.08-.26a18.49,18.49,0,0,0-.19-5,12.23,12.23,0,0,1-1.17-3.95l-.1-.46L92,45.76l.11,9.18c-1.38,1.6-.11,4.6-.11,4.6.81.66.81,2.68.73,3.88,0,.54-.09.92-.09.92A4.15,4.15,0,0,0,94.07,64.08Z"/><path class="cls-3" d="M90,76.55c1.07,1.07.07,2.63.07,2.63a3.46,3.46,0,0,0-.54,2,12,12,0,0,0,0,1.2c.06.88.18,1.58.18,1.58.64,1.21,4.25,3.28,4.25,3.28a21.61,21.61,0,0,1-1.11-2.07,11.52,11.52,0,0,1-1.3-4.62A1.94,1.94,0,0,0,92,78.65c0-.15-.09-.25-.09-.25a9.61,9.61,0,0,1-.65-3.12c-.19-2.21-.13-4.64-.13-4.64.28.64,1.63,1.28,1.63,1.28-.58-1.64-.61-5.8-.59-7.82,0-.7,0-1.15,0-1.15C87.51,67.08,87.84,71.4,88.73,74a8.61,8.61,0,0,0,.43,1.11A9,9,0,0,0,90,76.55Z"/><path class="cls-3" d="M82.08,72.49a2.09,2.09,0,0,0,.26-2.71l-.12-.14C81,70,69.18,81,69.18,81c.42.15-.07,2.64-.07,2.64-1,1-.36,3.77-.36,3.77l.43-.29a74,74,0,0,0,7.87-6.76C77.33,78.76,82.08,72.49,82.08,72.49Z"/><path class="cls-3" d="M80.68,91.37a5.47,5.47,0,0,0,0,1.55,3.42,3.42,0,0,0-.7,2.92c.49.86,6.66,2.85,6.66,2.85a.81.81,0,0,0,.09-.1c1-1.11-2.22-3.39-2.22-3.39-4.14-3.53-.36-3,.68-2.75l.25,0a13.69,13.69,0,0,0,5.88,1.74,9.16,9.16,0,0,0,2.06-.1c0-.65-5.53-5.56-5.53-5.56a37.5,37.5,0,0,0,5.4,3.4l.69.38a2.93,2.93,0,0,0-.64-1.3,66.65,66.65,0,0,0-5.6-6.32,31.45,31.45,0,0,0,0-5.53c-.13-2.6-.33-5.08-.33-5.08-1.2.71-1.56,10-1.56,10-.71.35-1.06,2.13-1.06,2.13a8.1,8.1,0,0,0-2.17,1.44A6.2,6.2,0,0,0,80.68,91.37Z"/><path class="cls-3" d="M71.92,115.07a3.32,3.32,0,0,0,.52-1.93,3.84,3.84,0,0,1,.07-.47l.06-.29c.14-.63.38-1.47.65-2.38s.59-1.87.9-2.77c.64-1.93,1.23-3.55,1.23-3.55,1.91-2.57,2.55-8.41,2.55-8.41.71-3.13,6.52-13.17,6.52-13.17l0-1.86,0-2c-.35,1.56-9.85,14-9.85,14a10.32,10.32,0,0,0-1.61,1.79,3.64,3.64,0,0,0-.46.91,1.11,1.11,0,0,0-.06.51,77.7,77.7,0,0,1-.88,8.91c-.42,2.82-.82,4.9-.82,4.9a31.09,31.09,0,0,1-4.58,9.09,23.06,23.06,0,0,1-1.88,2.3c.71-.28,1.35-.57,1.94-.85a22.25,22.25,0,0,0,2.57-1.45A9.63,9.63,0,0,0,71.92,115.07Z"/><path class="cls-3" d="M77.83,84.67c.21-.93,3.26-4.06,3.26-4.06a53.15,53.15,0,0,1,1.84-6.84h0c-.08-.63-.32-.65-.57-.45a3.71,3.71,0,0,0-.76,1l-.08.16c-.57,2-2.84,6.9-2.84,6.9-1.49,2-10.14,9.9-10.14,9.9l.28,9.82a9.42,9.42,0,0,1,.44-1.22c1.41-3.31,5.66-11.59,5.66-11.59A16.34,16.34,0,0,0,77.83,84.67Z"/><path class="cls-3" d="M60.73,120.26l.1.08-.14-2.09-.38-5.64c-.4-.11-.58-.62-.58-.62a63,63,0,0,1-.76-7.87c-.39-6.14-.68-13.55-.68-13.55-.28-2.12-3.19-6.2-3.19-6.2a.84.84,0,0,0-.3,0c-.67,0-.09,1.16-.09,1.16.69.1.83,2.76.83,2.76-.85,3.18.56,11.93,1.26,15.84.21,1.18.36,1.93.36,1.93.93,2.18,1.18,7,1.18,7h-.23c-2,0-2.75,3.12-2.75,3.12h0l2.77,2.15Z"/><path class="cls-3" d="M66.29,116.11h0S65.57,113,63.55,113h-.22s.25-4.77,1.18-6.95c0,0,.14-.71.35-1.85.7-3.87,2.13-12.72,1.28-15.92,0,0,.14-2.66.82-2.76,0,0,.59-1.13-.1-1.16a.72.72,0,0,0-.28,0s-2.91,4.08-3.19,6.2c0,0-.3,7.43-.68,13.58a63.84,63.84,0,0,1-.77,7.84s-.17.51-.57.62L61,118.25l-.14,2.1.08-.07,2.62-2Z"/><path class="cls-3" d="M61,34s-2.46.55-11,4.07l0,1.69,0,2s10.39-4.59,11-4.12A43,43,0,0,1,71.94,41.7l0-2,0-1.64A75.41,75.41,0,0,0,61,34Z"/><path class="cls-3" d="M65.49,55C69.16,55,68.66,58,68.66,58c0,3.41-3,3.36-3,3.36l-9.42,0v9.46a13.13,13.13,0,0,0,4.67.86h0V65.07h5.8c5.53,0,6.21-4.64,6.21-4.64a22.74,22.74,0,0,0,0-4.1c0-4.5-5.8-5.32-5.8-5.32H49.94a13.12,13.12,0,0,0-1.75,3.84Z"/><path class="cls-4" d="M14.9,22.48A69.77,69.77,0,0,1,61,4.66,69.77,69.77,0,0,1,107,22.47,72.41,72.41,0,0,1,121.67,40l.24-.12A72,72,0,0,0,104,16,65.78,65.78,0,0,0,84,4.23,64.32,64.32,0,0,0,61,0H60.9a64.32,64.32,0,0,0-23,4.22A65.78,65.78,0,0,0,17.93,16,72,72,0,0,0,0,39.92L.24,40A72.28,72.28,0,0,1,14.9,22.48Z"/><path class="cls-4" d="M107,110.94A69.77,69.77,0,0,1,61,128.76a69.76,69.76,0,0,1-46-17.82A72.48,72.48,0,0,1,.24,93.38L0,93.5a72.06,72.06,0,0,0,17.93,23.94,65.78,65.78,0,0,0,20,11.75,64.16,64.16,0,0,0,23,4.21H61s.32,0,.87,0a67.12,67.12,0,0,0,42.1-16A72.06,72.06,0,0,0,121.91,93.5l-.24-.12A72.28,72.28,0,0,1,107,110.94Z"/><path class="cls-4" d="M38,53.06l.78-2.74c-2.15.44-7.57,7.53-7.57,7.53l7.68,6.42-.09-.37-5.85-5A55.12,55.12,0,0,1,38,53.06Z"/><path class="cls-4" d="M30.57,44.16c-1.91-2.57-8.29-9.61-8.29-9.61,0,.22,0,.44,0,.67,2.15,2.37,5.17,5.73,6.41,7.36,0,0,.12.21.3.58a40,40,0,0,1,2.87,7.72L33,50a39.67,39.67,0,0,0-2.11-5.32C30.68,44.36,30.57,44.16,30.57,44.16Z"/><path class="cls-4" d="M33.43,32.48l-1.57-.72-.27-.12-.67-.3c-.89-.39-1.54-.65-1.79-.72l-.13,0-.31-.11c-1.14-.43-4.46-1.93-9.16-6.26,0,0-3.62,9.51-1.36,17.48,0,0,.08.39.19,1,0,.14.05.28.07.43.15.83.34,1.94.54,3.16.06.39.13.8.19,1.21,0,.15.05.31.08.47.18,1.15.35,2.31.48,3.37,0,.13,0,.25.05.37.1.81.17,1.55.21,2.14a15.84,15.84,0,0,0,1,2.54c.61,1.19,1.49,2.39,2.59,2.55a30.65,30.65,0,0,1-1.71-5.57A11.21,11.21,0,0,1,21.68,51s-.09-.67-.23-1.66c-.06-.37-.11-.79-.18-1.24-.13-1-.29-2.1-.45-3.19l-.06-.44c-.11-.74-.21-1.46-.3-2.09a21.81,21.81,0,0,1-.47-5c-.1-1.55-.17-3.3-.12-4.74l.47.5A37,37,0,0,1,22,26.43c4.42,4.18,7.55,5.63,8.62,6l.29.1.13,0a14.92,14.92,0,0,1,1.68.7c.67.3,1.48.68,2.36,1.1,2.92,1.38,6.6,3.19,8.39,4.08l0-1.24S39.7,35.43,36,33.68l-2.37-1.11Z"/><path class="cls-4" d="M24.52,59.22a10.15,10.15,0,0,0,.09,3.83,15.07,15.07,0,0,0,2.05.61,18.6,18.6,0,0,1,.19-5,12.16,12.16,0,0,0,1.17-4l.1-.45a2.26,2.26,0,0,0-.23-.31L28,44.46l-2,9.07a12.87,12.87,0,0,1-1.1,3.82c.45,1.5.92,2.61.92,2.61A2.29,2.29,0,0,1,24.52,59.22Z"/><path class="cls-4" d="M27.84,64.29c0,2.26-.08,5.78-.63,7.28,0,0,1.43-.67,1.74-1.33,0,0,.15,6.27-.83,8a2,2,0,0,0,.37,2.22s.08,2.73-2.56,6.93a31.23,31.23,0,0,0,3.17-2.05,11.55,11.55,0,0,0,1.3-4.63A1.92,1.92,0,0,1,30,78.87a2.13,2.13,0,0,1,.2-2.51,9,9,0,0,0,.54-.86c.19-2.21.13-4.65.13-4.65-.28.65-1.63,1.29-1.63,1.29.58-1.64.61-5.79.59-7.82-.18-.23-.37-.45-.57-.68,0,.54.09.91.09.91A3.93,3.93,0,0,1,27.84,64.29Z"/><path class="cls-4" d="M40.33,74.58c1.48,2,3.35,4.73,3.53,5.69a74.38,74.38,0,0,0,8.81,7.31s0-.11.06-.28a75.28,75.28,0,0,1-7.87-6.76c-.28-1.57-5-7.83-5-7.83A2.07,2.07,0,0,1,39.57,70a5.52,5.52,0,0,0-1.21-.79,2.09,2.09,0,0,0,.15,3s.42.54,1,1.35A4,4,0,0,1,40.33,74.58Z"/><path class="cls-4" d="M32.43,81.38a11.93,11.93,0,0,1,0,1.2,12.44,12.44,0,0,0,.14,2.27,74.5,74.5,0,0,0-5.83,6.38,3.52,3.52,0,0,0-.8,1.51s.57-.29,1.36-.72l1.33-.74A66.7,66.7,0,0,1,34.23,85a31.33,31.33,0,0,1,0-5.52,18.61,18.61,0,0,0-1-5.18,9,9,0,0,1-.43,1.1C32.64,76.88,32.48,79.31,32.43,81.38Z"/><path class="cls-4" d="M36,95.69s-2.75,1.87-2.57,3.1a.76.76,0,0,0,.31.52l.21-.07,1.3-.43c-1.06-1.11,2.22-3.39,2.22-3.39,4.2-3.59.25-3-.72-2.75C38,92.65,39,93.12,36,95.69Z"/><path class="cls-4" d="M26.76,94.19a.89.89,0,0,0-.22.4s.22,0,.61.08a12.83,12.83,0,0,0,3.52-.22,10.52,10.52,0,0,1-1.54,0c-.37,0-.58-.08-.58-.08a.91.91,0,0,1,.21-.38,69.49,69.49,0,0,1,5.32-5.17,38.3,38.3,0,0,1-5.37,3.38l-.76.73A14.48,14.48,0,0,0,26.76,94.19Z"/><path class="cls-4" d="M41.23,91.6A23.61,23.61,0,0,1,43,95.77s.67,6,2.71,8.7c0,0,.31.84.73,2l.39,1.12c.22.64.46,1.33.68,2,.13.39.26.77.38,1.15s.27.87.38,1.27c0,.11.06.21.09.31.09.31.17.62.24.88,0,.11,0,.21.07.31a5.94,5.94,0,0,1,.13.72s-.25,1.48,1.67,3.46a12.72,12.72,0,0,0,1.94,1.61A25.51,25.51,0,0,0,57.49,122a22,22,0,0,1-1.74-2.06,20.54,20.54,0,0,1-2.87-1.65,11.77,11.77,0,0,1-1.83-1.55c-1.81-1.92-1.58-3.34-1.58-3.34a3.94,3.94,0,0,0-.12-.7l-.06-.3c-.16-.65-.4-1.49-.68-2.38s-.66-2.08-1-3c-.57-1.7-1.06-3-1.06-3-1.91-2.56-2.55-8.4-2.55-8.4-.71-3.13-6.52-13.17-6.52-13.17l0-1.86a11.53,11.53,0,0,1-1.42-2.4L36,82.12s1.59,2.69,3.26,5.75A6.23,6.23,0,0,1,41.23,91.6Z"/><path class="cls-4" d="M52.6,102.14l0-1.71C51.24,97.12,47,88.83,47,88.83a16.11,16.11,0,0,1-2.91-3.63c-.21-.92-3.26-4.06-3.26-4.06A53.32,53.32,0,0,0,39,74.31h0c-.34-.57-1.19-1.86-1.37-.5a54.38,54.38,0,0,1,2,7.08S42.8,84.14,43,85.1a16.89,16.89,0,0,0,3.09,3.76S47.51,91.5,49,94.44a3.58,3.58,0,0,1,.49,1A56.7,56.7,0,0,1,52.6,102.14Z"/><path class="cls-4" d="M89,58.68l-5.86,5-.08.35,7.68-6.41s-5.42-7.09-7.57-7.53L84,52.85A55.12,55.12,0,0,1,89,58.68Z"/><path class="cls-4" d="M99.63,34.34c-.06.06-4.16,4.59-6.75,7.69-.63.75-1.17,1.42-1.54,1.91A39.33,39.33,0,0,0,89,49.82l1.11.83a39.89,39.89,0,0,1,3.17-8.3c.39-.51,1-1.2,1.63-2,1.44-1.67,3.31-3.75,4.78-5.36,0-.23,0-.46,0-.68Z"/><path class="cls-4" d="M88.89,33.26a18.8,18.8,0,0,1,2-.83l0,0,.25-.08c.87-.31,4.1-1.67,8.79-6.11a37,37,0,0,1,1.62,6.68c.29-.31.45-.49.47-.5h0c0,.29,0,.59,0,.9,0,1.23,0,2.59-.13,3.84a21.52,21.52,0,0,1-.47,5c-.1.68-.21,1.45-.32,2.25,0,.14,0,.29-.07.43-.15,1.06-.3,2.13-.43,3.07l0,.26c-.21,1.49-.36,2.58-.36,2.58a8.11,8.11,0,0,1,0,1.2,27.62,27.62,0,0,1-1.88,6.77c1.36-.2,2.4-2,3-3.41a16.48,16.48,0,0,0,.62-1.68c0-.52.09-1.16.18-1.86.06-.52.13-1.07.21-1.64,0-.12,0-.24.05-.36.09-.61.18-1.24.28-1.86,0-.16,0-.31.07-.47.06-.35.11-.71.17-1.06.2-1.26.4-2.42.56-3.3,0-.15,0-.29.07-.43.13-.74.22-1.19.22-1.19C106,33.5,102.38,24,102.38,24c-5,4.61-8.42,6-9.34,6.34l-.26.08-.06,0c-.32.09-1.08.41-2.09.86l-.48.22-.27.12-1.27.58-.68.31L86,33.42C82.28,35.17,78.43,37,78.43,37l0,1.24c1.82-.9,5.58-2.75,8.51-4.14Z"/><path class="cls-4" d="M95.06,58.47a18.49,18.49,0,0,1,.19,5,15.07,15.07,0,0,0,2-.61A10.09,10.09,0,0,0,97.39,59a2.29,2.29,0,0,1-1.27.74s.47-1.12.92-2.62a12.87,12.87,0,0,1-1.1-3.82l-2-9.07L94,53.75a2.26,2.26,0,0,0-.23.31l.1.46A12.23,12.23,0,0,0,95.06,58.47Z"/><path class="cls-4" d="M92.72,71.92s-1.35-.64-1.63-1.28c0,0-.06,2.43.13,4.64a9,9,0,0,0,.54.86,2.12,2.12,0,0,1,.2,2.51,1.94,1.94,0,0,1-.45,1.89,11.52,11.52,0,0,0,1.3,4.62,30.06,30.06,0,0,0,3.17,2c-2.64-4.21-2.56-6.94-2.56-6.94a2,2,0,0,0,.37-2.21c-1-1.77-.83-8-.83-8,.31.66,1.74,1.33,1.74,1.33-.55-1.5-.64-5-.63-7.27a4.15,4.15,0,0,1-1.46.26s0-.38.09-.92c-.2.22-.39.45-.57.68C92.11,66.12,92.14,70.28,92.72,71.92Z"/><path class="cls-4" d="M82.36,73.63c.61-.82,1-1.37,1-1.37a2.09,2.09,0,0,0,.15-3,5.72,5.72,0,0,0-1.21.8,2.08,2.08,0,0,1-.26,2.71s-4.75,6.26-5,7.83a74.41,74.41,0,0,1-7.87,6.75,2.52,2.52,0,0,0,.06.28,74.68,74.68,0,0,0,8.81-7.3c.18-1,2.07-3.7,3.55-5.72A3.75,3.75,0,0,1,82.36,73.63Z"/><path class="cls-4" d="M87.68,84.74a66.65,66.65,0,0,1,5.6,6.32l2,1.09.71.37a2.06,2.06,0,0,0-.36-.86c-1.37-2.23-6.27-7-6.27-7a12.31,12.31,0,0,0,.14-2.26,12,12,0,0,1,0-1.2c0-2.07-.21-4.5-.32-6A8.61,8.61,0,0,1,88.73,74a18.4,18.4,0,0,0-1,5.18A31.45,31.45,0,0,1,87.68,84.74Z"/><path class="cls-4" d="M86,95.47c-3-2.54-2.06-3-.79-3-1-.21-4.82-.78-.68,2.75,0,0,3.26,2.28,2.22,3.39l1.51.5C89.65,98,86,95.47,86,95.47Z"/><path class="cls-4" d="M95.37,94.37c0-.17-.35-.6-.89-1.16-.35-.37-.79-.79-1.25-1.23a37.5,37.5,0,0,1-5.4-3.4s5.53,4.91,5.53,5.56a9.16,9.16,0,0,1-2.06.1,13.65,13.65,0,0,0,2.16.25A9.09,9.09,0,0,0,95.37,94.37Z"/><path class="cls-4" d="M74,111.13c.11-.37.24-.75.37-1.14.19-.58.38-1.17.58-1.73l.38-1.1c.52-1.48.92-2.59.92-2.59,2-2.65,2.71-8.7,2.71-8.7a23.61,23.61,0,0,1,1.73-4.17A6.22,6.22,0,0,1,82.61,88c1.67-3.07,3.27-5.77,3.27-5.77l-.07-4.06a11.27,11.27,0,0,1-1.42,2.4l0,1.87s-5.81,10-6.52,13.17c0,0-.64,5.84-2.55,8.4,0,0-.59,1.62-1.23,3.55-.31.91-.62,1.87-.9,2.78s-.51,1.74-.65,2.37l-.06.29a3.7,3.7,0,0,0-.07.48,3.3,3.3,0,0,1-.52,1.92,9.54,9.54,0,0,1-3.2,3.18A22.25,22.25,0,0,1,66.15,120a24.35,24.35,0,0,1-1.73,2,26.85,26.85,0,0,0,4.79-2.39,10,10,0,0,0,3.39-3.29,3.24,3.24,0,0,0,.55-2c0-.14,0-.3.08-.49s0-.2.07-.31c0-.26.13-.56.22-.88l.09-.31C73.72,112,73.85,111.58,74,111.13Z"/><path class="cls-4" d="M75.79,88.64a16.89,16.89,0,0,0,3.09-3.76c.23-1,3.46-4.21,3.46-4.21a54.38,54.38,0,0,1,2-7.08c-.18-1.36-1-.07-1.37.5h0a53.32,53.32,0,0,0-1.84,6.83S78,84.06,77.83,85a16.34,16.34,0,0,1-2.91,3.63s-4.25,8.29-5.66,11.6l0,1.7a57.26,57.26,0,0,1,3.12-6.75,3.5,3.5,0,0,1,.46-.92C74.39,91.3,75.79,88.64,75.79,88.64Z"/><path class="cls-4" d="M60.73,120.58l-2.59-2-2.77-2.15a6.61,6.61,0,0,0-.36,1l3,2.24,2.86,2.17Z"/><path class="cls-4" d="M57.16,106.35s-.15-.74-.36-1.93c-.7-3.91-2.11-12.66-1.26-15.83,0,0-.14-2.67-.83-2.77,0,0-.58-1.12.09-1.16l-.06-.09c-1.19-.29-.41,1.17-.41,1.17.72.1.87,2.86.87,2.86-.9,3.3.6,12.36,1.34,16.41.23,1.23.39,2,.39,2a24.14,24.14,0,0,1,1.18,6.29h.23S58.09,108.53,57.16,106.35Z"/><path class="cls-4" d="M67,85.83c-.68.1-.82,2.77-.82,2.77.85,3.19-.58,12-1.28,15.91-.21,1.14-.35,1.85-.35,1.85-.93,2.18-1.18,7-1.18,7a1.61,1.61,0,0,1,.22,0A24.56,24.56,0,0,1,64.73,107s.16-.74.37-1.92c.74-4,2.27-13.17,1.36-16.49,0,0,.15-2.76.87-2.86,0,0,.79-1.46-.4-1.17l-.07.09C67.55,84.7,67,85.83,67,85.83Z"/><path class="cls-4" d="M66.65,117.12a6.61,6.61,0,0,0-.36-1l-2.74,2.14-2.62,2-.09,1.25,2.87-2.18Z"/><path class="cls-4" d="M50,38C58.58,34.51,61,34,61,34a75.41,75.41,0,0,1,11,4.11l0,1.64.65.32.07-3.76A81.17,81.17,0,0,0,61.05,32s-2.62.57-11.7,4.22L49.43,40l.64-.27Z"/><path class="cls-3" d="M44.07,58.86A16.89,16.89,0,1,0,61,41.91,16.92,16.92,0,0,0,44.07,58.86ZM61,45.11a13.32,13.32,0,0,1,0,26.64h0a13.13,13.13,0,0,1-4.67-.86,13.28,13.28,0,0,1-8.1-16A13.24,13.24,0,0,1,61,45.11Z"/></g></g></svg>