<svg xmlns="http://www.w3.org/2000/svg" viewBox="0 0 66.1 51.07"><defs><style>.cls-1{fill:#fff;}</style></defs><g id="Layer_2" data-name="Layer 2"><g id="Layer_2-2" data-name="Layer 2"><path class="cls-1" d="M32.9,51.07a22.9,22.9,0,1,0-22.8-22.9A22.85,22.85,0,0,0,32.9,51.07Zm0-41.46a18,18,0,0,1,.06,36v-9H40.8c7.46,0,8.38-6.27,8.38-6.27a31,31,0,0,0,.06-5.53c.06-6.08-7.83-7.19-7.83-7.19H18A17.89,17.89,0,0,1,32.9,9.61ZM39,22.92C44,23,43.31,27,43.31,27c0,4.61-4,4.55-4,4.55l-12.73.06V44.42A17.92,17.92,0,0,1,15.66,22.75Z"/><path class="cls-1" d="M17.69,5.22A27,27,0,0,0,7,18.67C-.93-2.11-7.15-3.86,17.69,5.22Z"/><path class="cls-1" d="M48.41,5.49a27,27,0,0,1,10.7,13.45C67-1.84,73.25-3.59,48.41,5.49Z"/></g></g></svg>